<?xml version="1.0" encoding="UTF-8"?>
<svg id="Layer_1" xmlns="http://www.w3.org/2000/svg" version="1.1" viewBox="0 0 295.97 301.07">
  <!-- Generator: Adobe Illustrator 30.0.0, SVG Export Plug-In . SVG Version: 2.1.1 Build 123)  -->
  <defs>
    <style>
      .st0 {
        stroke-linecap: round;
        stroke-linejoin: round;
        stroke-width: 6px;
      }

      .st0, .st1 {
        fill: none;
        stroke: #000;
      }

      .st2, .st3 {
        isolation: isolate;
      }

      .st3 {
        display: none;
      }

      .st1 {
        stroke-miterlimit: 10;
        stroke-width: 5px;
      }
    </style>
  </defs>
  <path class="st0" d="M289.8,148.18c0,78.28-63.46,141.73-141.73,141.73S6.34,226.45,6.34,148.18,69.8,6.45,148.07,6.45c62.91,0,114.65,44.79,133.39,93.7,9.04,23.61,8.35,43.26,8.35,48.03h-.01Z"/>
  <line class="st0" x1="178.85" y1="118.08" x2="220.71" y2="118.08"/>
  <path class="st0" d="M159.4,289.92L190.75,14.13h-.04l49.43,169.82c1.31,4.47,3.69,8.55,6.92,11.9h0c4.4,4.57,10.13,7.64,16.38,8.77h0s.06,0,.09.02c.57.1,1.17.16,1.8.19,5.74.28,11.19-2.53,14.63-7.12l2.42-3.7"/>
  <g class="st3">
    <g class="st2">
      <g class="st2">
        <g class="st2">
          <g class="st2">
            <g class="st2">
              <path d="M286.78,117.09c-.25,0-.43.07-.54.21-.07.09-.1.19-.1.32,0,.21.1.35.3.43.11.04.24.06.42.06h.82v-1.01h-.9ZM286.92,118.42c-.17,0-.31.02-.41.07-.15.07-.23.2-.23.39s.08.31.24.38c.09.04.23.05.41.05h.74v-.89h-.75,0Z"/>
            </g>
          </g>
        </g>
      </g>
    </g>
    <g class="st2">
      <g class="st2">
        <g class="st2">
          <g class="st2">
            <g class="st2">
              <path d="M286.19,119.63h-.48l-.87-1.38-.87,1.38h-.48l1.14-1.71v-1.16h.41v1.16l1.14,1.71h0Z"/>
            </g>
          </g>
        </g>
      </g>
    </g>
    <g class="st2">
      <g class="st2">
        <g class="st2">
          <g class="st2">
            <g class="st2">
              <path d="M282.9,117.69c0-.16-.05-.29-.12-.4-.13-.19-.36-.29-.69-.29-.15,0-.28.02-.4.06-.23.08-.35.23-.35.43,0,.16.05.27.15.33.1.06.26.12.47.17l.4.09c.26.06.44.12.55.19.19.12.28.3.28.54,0,.26-.09.47-.27.63-.18.16-.44.25-.77.25-.31,0-.57-.07-.78-.22s-.32-.38-.32-.7h.38c.02.15.06.27.13.35.12.15.32.22.61.22.23,0,.4-.05.5-.14.1-.1.15-.21.15-.34,0-.14-.06-.24-.18-.31-.08-.04-.25-.09-.53-.16l-.41-.09c-.2-.04-.35-.1-.46-.18-.19-.13-.28-.33-.28-.58,0-.32.12-.54.36-.68s.51-.21.82-.21c.37,0,.65.09.86.27s.31.43.3.74h-.38l-.02.03h0Z"/>
            </g>
          </g>
        </g>
      </g>
    </g>
    <g class="st2">
      <g class="st2">
        <g class="st2">
          <g class="st2">
            <g class="st2">
              <path d="M278.77,119.22c-.2-.25-.3-.58-.3-.97,0-.43.11-.78.34-1.07.27-.33.65-.5,1.15-.5.46,0,.83.15,1.09.44.24.28.36.64.36,1.07,0,.39-.1.72-.3,1-.26.35-.64.53-1.15.53s-.93-.16-1.18-.49h-.01ZM279.13,117.39c-.16.25-.24.53-.24.85,0,.34.09.61.28.81.19.21.44.31.76.31s.57-.1.76-.31c.2-.2.3-.5.3-.9,0-.32-.08-.59-.25-.8s-.44-.33-.82-.33c-.36,0-.62.12-.78.37,0,0-.01,0-.01,0Z"/>
            </g>
          </g>
        </g>
      </g>
    </g>
    <g class="st2">
      <g class="st2">
        <g class="st2">
          <g class="st2">
            <g class="st2">
              <path d="M278.76,119.63h-2.09v-.35h1.68v-.87h-1.48v-.34h1.48v-1.3h.41v2.87h0Z"/>
            </g>
          </g>
        </g>
      </g>
    </g>
    <g class="st2">
      <g class="st2">
        <g class="st2">
          <g class="st2">
            <g class="st2">
              <path d="M276.96,119.63h-.41v-2.87h.41v2.87Z"/>
            </g>
          </g>
        </g>
      </g>
    </g>
    <g class="st2">
      <g class="st2">
        <g class="st2">
          <g class="st2">
            <g class="st2">
              <path d="M276.14,119.63h-2.19v-.35h1.79v-.87h-1.65v-.33h1.65v-.97h-1.82v-.34h2.22v2.87h0Z"/>
            </g>
          </g>
        </g>
      </g>
    </g>
    <g class="st2">
      <g class="st2">
        <g class="st2">
          <g class="st2">
            <g class="st2">
              <path d="M272.5,119.63h-.46l-1.09-2.87h.45l.3.86h1.19l.33-.86h.42l-1.13,2.87h-.01ZM271.83,117.94l.46,1.27.49-1.27h-.95,0Z"/>
            </g>
          </g>
        </g>
      </g>
    </g>
    <g class="st2">
      <g class="st2">
        <g class="st2">
          <g class="st2">
            <g class="st2">
              <path d="M271.3,119.63h-.58l-.87-2.43-.86,2.43h-.58v-2.87h.39v2.42l.86-2.42h.4l.87,2.42v-2.42h.39v2.87h-.02Z"/>
            </g>
          </g>
        </g>
      </g>
    </g>
    <g class="st2">
      <g class="st2">
        <g class="st2">
          <g class="st2">
            <g class="st2">
              <path d="M267.8,119.63h-.46l-1.09-2.87h.45l.3.86h1.19l.33-.86h.42l-1.13,2.87h-.01ZM267.12,117.94l.46,1.27.49-1.27h-.95,0Z"/>
            </g>
          </g>
        </g>
      </g>
    </g>
    <g class="st2">
      <g class="st2">
        <g class="st2">
          <g class="st2">
            <g class="st2">
              <path d="M266.57,119.63h-.41v-2.53h-1.51v-.34h1.92v2.87Z"/>
            </g>
          </g>
        </g>
      </g>
    </g>
    <g class="st2">
      <g class="st2">
        <g class="st2">
          <g class="st2">
            <g class="st2">
              <path d="M264.73,119.63h-.41v-2.87h.41v2.87Z"/>
            </g>
          </g>
        </g>
      </g>
    </g>
    <g class="st2">
      <g class="st2">
        <g class="st2">
          <g class="st2">
            <g class="st2">
              <path d="M263.91,119.63h-2.19v-.35h1.79v-.87h-1.65v-.33h1.65v-.97h-1.82v-.34h2.22v2.87h0Z"/>
            </g>
          </g>
        </g>
      </g>
    </g>
    <g class="st2">
      <g class="st2">
        <g class="st2">
          <g class="st2">
            <g class="st2">
              <path d="M260.29,119.63h-1.3c-.35,0-.61-.1-.76-.3-.09-.12-.13-.26-.13-.41,0-.18.05-.33.16-.45.06-.06.14-.12.24-.17-.15-.06-.27-.12-.35-.19-.14-.12-.2-.3-.2-.52,0-.19.06-.35.18-.5.18-.22.47-.34.87-.34h1.28v2.87h.01ZM259,117.09c-.25,0-.43.07-.54.21-.07.09-.1.19-.1.32,0,.21.1.35.3.43.11.04.24.06.42.06h.82v-1.01h-.9ZM259.14,118.42c-.17,0-.31.02-.41.07-.15.07-.23.2-.23.39s.08.31.24.38c.09.04.23.05.41.05h.74v-.89h-.75,0Z"/>
            </g>
          </g>
        </g>
      </g>
    </g>
    <g class="st2">
      <g class="st2">
        <g class="st2">
          <g class="st2">
            <g class="st2">
              <path d="M258.41,119.63h-.48l-.87-1.38-.87,1.38h-.48l1.14-1.71v-1.16h.41v1.16l1.14,1.71h0Z"/>
            </g>
          </g>
        </g>
      </g>
    </g>
    <g class="st2">
      <g class="st2">
        <g class="st2">
          <g class="st2">
            <g class="st2">
              <path d="M255.13,117.69c0-.16-.05-.29-.12-.4-.13-.19-.36-.29-.69-.29-.15,0-.28.02-.4.06-.23.08-.35.23-.35.43,0,.16.05.27.15.33.1.06.26.12.47.17l.4.09c.26.06.44.12.55.19.19.12.28.3.28.54,0,.26-.09.47-.27.63-.18.16-.44.25-.77.25-.31,0-.57-.07-.78-.22s-.32-.38-.32-.7h.38c.02.15.06.27.13.35.12.15.32.22.61.22.23,0,.4-.05.5-.14.1-.1.15-.21.15-.34,0-.14-.06-.24-.18-.31-.08-.04-.25-.09-.53-.16l-.41-.09c-.2-.04-.35-.1-.46-.18-.19-.13-.28-.33-.28-.58,0-.32.12-.54.36-.68s.51-.21.82-.21c.37,0,.65.09.86.27.21.18.31.43.3.74h-.38l-.02.03h0Z"/>
            </g>
          </g>
        </g>
      </g>
    </g>
    <g class="st2">
      <g class="st2">
        <g class="st2">
          <g class="st2">
            <g class="st2">
              <path d="M250.99,119.22c-.2-.25-.3-.58-.3-.97,0-.43.11-.78.34-1.07.27-.33.65-.5,1.15-.5.46,0,.83.15,1.09.44.24.28.36.64.36,1.07,0,.39-.1.72-.3,1-.26.35-.64.53-1.15.53s-.93-.16-1.18-.49h0ZM251.35,117.39c-.16.25-.24.53-.24.85,0,.34.09.61.28.81.19.21.44.31.76.31s.57-.1.76-.31c.2-.2.3-.5.3-.9,0-.32-.08-.59-.25-.8s-.44-.33-.82-.33c-.36,0-.62.12-.78.37h0Z"/>
            </g>
          </g>
        </g>
      </g>
    </g>
    <g class="st2">
      <g class="st2">
        <g class="st2">
          <g class="st2">
            <g class="st2">
              <path d="M250.98,119.63h-2.09v-.35h1.68v-.87h-1.48v-.34h1.48v-1.3h.41v2.87h0Z"/>
            </g>
          </g>
        </g>
      </g>
    </g>
    <g class="st2">
      <g class="st2">
        <g class="st2">
          <g class="st2">
            <g class="st2">
              <path d="M249.19,119.63h-.41v-2.87h.41v2.87Z"/>
            </g>
          </g>
        </g>
      </g>
    </g>
    <g class="st2">
      <g class="st2">
        <g class="st2">
          <g class="st2">
            <g class="st2">
              <path d="M248.36,119.63h-2.19v-.35h1.79v-.87h-1.65v-.33h1.65v-.97h-1.82v-.34h2.22v2.87h0Z"/>
            </g>
          </g>
        </g>
      </g>
    </g>
    <g class="st2">
      <g class="st2">
        <g class="st2">
          <g class="st2">
            <g class="st2">
              <path d="M244.73,119.63h-.46l-1.09-2.87h.45l.3.86h1.19l.33-.86h.42l-1.13,2.87h0ZM244.06,117.94l.46,1.27.49-1.27h-.95Z"/>
            </g>
          </g>
        </g>
      </g>
    </g>
    <g class="st2">
      <g class="st2">
        <g class="st2">
          <g class="st2">
            <g class="st2">
              <path d="M243.52,119.63h-.58l-.87-2.43-.86,2.43h-.58v-2.87h.39v2.42l.86-2.42h.4l.87,2.42v-2.42h.39v2.87h-.02,0Z"/>
            </g>
          </g>
        </g>
      </g>
    </g>
    <g class="st2">
      <g class="st2">
        <g class="st2">
          <g class="st2">
            <g class="st2">
              <path d="M240.02,119.63h-.46l-1.09-2.87h.45l.3.86h1.19l.33-.86h.42l-1.13,2.87h0ZM239.35,117.94l.46,1.27.49-1.27h-.95Z"/>
            </g>
          </g>
        </g>
      </g>
    </g>
    <g class="st2">
      <g class="st2">
        <g class="st2">
          <g class="st2">
            <g class="st2">
              <path d="M238.8,119.63h-.41v-2.53h-1.51v-.34h1.92v2.87Z"/>
            </g>
          </g>
        </g>
      </g>
    </g>
    <g class="st2">
      <g class="st2">
        <g class="st2">
          <g class="st2">
            <g class="st2">
              <path d="M236.96,119.63h-.41v-2.87h.41v2.87Z"/>
            </g>
          </g>
        </g>
      </g>
    </g>
    <g class="st2">
      <g class="st2">
        <g class="st2">
          <g class="st2">
            <g class="st2">
              <path d="M236.13,119.63h-2.19v-.35h1.79v-.87h-1.65v-.33h1.65v-.97h-1.82v-.34h2.22v2.87h0Z"/>
            </g>
          </g>
        </g>
      </g>
    </g>
    <g class="st2">
      <g class="st2">
        <g class="st2">
          <g class="st2">
            <g class="st2">
              <path d="M232.51,119.63h-1.3c-.35,0-.61-.1-.76-.3-.09-.12-.13-.26-.13-.41,0-.18.05-.33.16-.45.06-.06.14-.12.24-.17-.15-.06-.27-.12-.35-.19-.14-.12-.2-.3-.2-.52,0-.19.06-.35.18-.5.18-.22.47-.34.87-.34h1.28v2.87h.01ZM231.22,117.09c-.25,0-.43.07-.54.21-.07.09-.1.19-.1.32,0,.21.1.35.3.43.11.04.24.06.42.06h.82v-1.01h-.9ZM231.36,118.42c-.17,0-.31.02-.41.07-.15.07-.23.2-.23.39s.08.31.24.38c.09.04.23.05.41.05h.74v-.89h-.75Z"/>
            </g>
          </g>
        </g>
      </g>
    </g>
    <g class="st2">
      <g class="st2">
        <g class="st2">
          <g class="st2">
            <g class="st2">
              <path d="M230.64,119.63h-.48l-.87-1.38-.87,1.38h-.48l1.14-1.71v-1.16h.41v1.16l1.14,1.71h0Z"/>
            </g>
          </g>
        </g>
      </g>
    </g>
    <g class="st2">
      <g class="st2">
        <g class="st2">
          <g class="st2">
            <g class="st2">
              <path d="M227.34,117.69c0-.16-.05-.29-.12-.4-.13-.19-.36-.29-.69-.29-.15,0-.28.02-.4.06-.23.08-.35.23-.35.43,0,.16.05.27.15.33.1.06.26.12.47.17l.4.09c.26.06.44.12.55.19.19.12.28.3.28.54,0,.26-.09.47-.27.63-.18.16-.44.25-.77.25-.31,0-.57-.07-.78-.22s-.32-.38-.32-.7h.38c.02.15.06.27.13.35.12.15.32.22.61.22.23,0,.4-.05.5-.14.1-.1.15-.21.15-.34,0-.14-.06-.24-.18-.31-.08-.04-.25-.09-.53-.16l-.41-.09c-.2-.04-.35-.1-.46-.18-.19-.13-.28-.33-.28-.58,0-.32.12-.54.36-.68s.51-.21.82-.21c.37,0,.65.09.86.27s.31.43.3.74h-.38l-.02.03h0Z"/>
            </g>
          </g>
        </g>
      </g>
    </g>
    <g class="st2">
      <g class="st2">
        <g class="st2">
          <g class="st2">
            <g class="st2">
              <path d="M223.21,119.22c-.2-.25-.3-.58-.3-.97,0-.43.11-.78.34-1.07.27-.33.65-.5,1.15-.5.46,0,.83.15,1.09.44.24.28.36.64.36,1.07,0,.39-.1.72-.3,1-.26.35-.64.53-1.15.53s-.93-.16-1.18-.49h0ZM223.57,117.39c-.16.25-.24.53-.24.85,0,.34.09.61.28.81.19.21.44.31.76.31s.57-.1.76-.31c.2-.2.3-.5.3-.9,0-.32-.08-.59-.25-.8s-.44-.33-.82-.33c-.36,0-.62.12-.78.37h0Z"/>
            </g>
          </g>
        </g>
      </g>
    </g>
    <g class="st2">
      <g class="st2">
        <g class="st2">
          <g class="st2">
            <g class="st2">
              <path d="M223.21,119.63h-2.09v-.35h1.68v-.87h-1.48v-.34h1.48v-1.3h.41v2.87h0Z"/>
            </g>
          </g>
        </g>
      </g>
    </g>
    <g class="st2">
      <g class="st2">
        <g class="st2">
          <g class="st2">
            <g class="st2">
              <path d="M221.41,119.63h-.41v-2.87h.41v2.87Z"/>
            </g>
          </g>
        </g>
      </g>
    </g>
    <g class="st2">
      <g class="st2">
        <g class="st2">
          <g class="st2">
            <g class="st2">
              <path d="M220.59,119.63h-2.19v-.35h1.79v-.87h-1.65v-.33h1.65v-.97h-1.82v-.34h2.22v2.87h0Z"/>
            </g>
          </g>
        </g>
      </g>
    </g>
    <g class="st2">
      <g class="st2">
        <g class="st2">
          <g class="st2">
            <g class="st2">
              <path d="M216.96,119.63h-.46l-1.09-2.87h.45l.3.86h1.19l.33-.86h.42l-1.13,2.87h0ZM216.28,117.94l.46,1.27.49-1.27h-.95Z"/>
            </g>
          </g>
        </g>
      </g>
    </g>
    <g class="st2">
      <g class="st2">
        <g class="st2">
          <g class="st2">
            <g class="st2">
              <path d="M215.74,119.63h-.58l-.87-2.43-.86,2.43h-.58v-2.87h.39v2.42l.86-2.42h.4l.87,2.42v-2.42h.39v2.87h-.02,0Z"/>
            </g>
          </g>
        </g>
      </g>
    </g>
    <g class="st2">
      <g class="st2">
        <g class="st2">
          <g class="st2">
            <g class="st2">
              <path d="M212.24,119.63h-.46l-1.09-2.87h.45l.3.86h1.19l.33-.86h.42l-1.13,2.87h0ZM211.57,117.94l.46,1.27.49-1.27h-.95Z"/>
            </g>
          </g>
        </g>
      </g>
    </g>
    <g class="st2">
      <g class="st2">
        <g class="st2">
          <g class="st2">
            <g class="st2">
              <path d="M211.02,119.63h-.41v-2.53h-1.51v-.34h1.92v2.87Z"/>
            </g>
          </g>
        </g>
      </g>
    </g>
    <g class="st2">
      <g class="st2">
        <g class="st2">
          <g class="st2">
            <g class="st2">
              <path d="M209.18,119.63h-.41v-2.87h.41v2.87Z"/>
            </g>
          </g>
        </g>
      </g>
    </g>
    <g class="st2">
      <g class="st2">
        <g class="st2">
          <g class="st2">
            <g class="st2">
              <path d="M208.36,119.63h-2.19v-.35h1.79v-.87h-1.65v-.33h1.65v-.97h-1.82v-.34h2.22v2.87h0Z"/>
            </g>
          </g>
        </g>
      </g>
    </g>
    <g class="st2">
      <g class="st2">
        <g class="st2">
          <g class="st2">
            <g class="st2">
              <path d="M204.74,119.63h-1.3c-.35,0-.61-.1-.76-.3-.09-.12-.13-.26-.13-.41,0-.18.05-.33.16-.45.06-.06.14-.12.24-.17-.15-.06-.27-.12-.35-.19-.14-.12-.2-.3-.2-.52,0-.19.06-.35.18-.5.18-.22.47-.34.87-.34h1.28v2.87h.01ZM203.45,117.09c-.25,0-.43.07-.54.21-.07.09-.1.19-.1.32,0,.21.1.35.3.43.11.04.24.06.42.06h.82v-1.01h-.9ZM203.59,118.42c-.17,0-.31.02-.41.07-.15.07-.23.2-.23.39s.08.31.24.38c.09.04.23.05.41.05h.74v-.89h-.75Z"/>
            </g>
          </g>
        </g>
      </g>
    </g>
    <g class="st2">
      <g class="st2">
        <g class="st2">
          <g class="st2">
            <g class="st2">
              <path d="M202.86,119.63h-.48l-.87-1.38-.87,1.38h-.48l1.14-1.71v-1.16h.41v1.16l1.14,1.71h0Z"/>
            </g>
          </g>
        </g>
      </g>
    </g>
    <g class="st2">
      <g class="st2">
        <g class="st2">
          <g class="st2">
            <g class="st2">
              <path d="M199.57,117.69c0-.16-.05-.29-.12-.4-.13-.19-.36-.29-.69-.29-.15,0-.28.02-.4.06-.23.08-.35.23-.35.43,0,.16.05.27.15.33.1.06.26.12.47.17l.4.09c.26.06.44.12.55.19.19.12.28.3.28.54,0,.26-.09.47-.27.63-.18.16-.44.25-.77.25-.31,0-.57-.07-.78-.22s-.32-.38-.32-.7h.38c.02.15.06.27.13.35.12.15.32.22.61.22.23,0,.4-.05.5-.14.1-.1.15-.21.15-.34,0-.14-.06-.24-.18-.31-.08-.04-.25-.09-.53-.16l-.41-.09c-.2-.04-.35-.1-.46-.18-.19-.13-.28-.33-.28-.58,0-.32.12-.54.36-.68s.51-.21.82-.21c.37,0,.65.09.86.27s.31.43.3.74h-.38l-.02.03h0Z"/>
            </g>
          </g>
        </g>
      </g>
    </g>
    <g class="st2">
      <g class="st2">
        <g class="st2">
          <g class="st2">
            <g class="st2">
              <path d="M195.44,119.22c-.2-.25-.3-.58-.3-.97,0-.43.11-.78.34-1.07.27-.33.65-.5,1.15-.5.46,0,.83.15,1.09.44.24.28.36.64.36,1.07,0,.39-.1.72-.3,1-.26.35-.64.53-1.15.53s-.93-.16-1.18-.49h0ZM195.8,117.39c-.16.25-.24.53-.24.85,0,.34.09.61.28.81.19.21.44.31.76.31s.57-.1.76-.31c.2-.2.3-.5.3-.9,0-.32-.08-.59-.25-.8s-.44-.33-.82-.33c-.36,0-.62.12-.78.37h0Z"/>
            </g>
          </g>
        </g>
      </g>
    </g>
    <g class="st2">
      <g class="st2">
        <g class="st2">
          <g class="st2">
            <g class="st2">
              <path d="M195.43,119.63h-2.09v-.35h1.68v-.87h-1.48v-.34h1.48v-1.3h.41v2.87h0Z"/>
            </g>
          </g>
        </g>
      </g>
    </g>
    <g class="st2">
      <g class="st2">
        <g class="st2">
          <g class="st2">
            <g class="st2">
              <path d="M193.63,119.63h-.41v-2.87h.41v2.87Z"/>
            </g>
          </g>
        </g>
      </g>
    </g>
    <g class="st2">
      <g class="st2">
        <g class="st2">
          <g class="st2">
            <g class="st2">
              <path d="M192.81,119.63h-2.19v-.35h1.79v-.87h-1.65v-.33h1.65v-.97h-1.82v-.34h2.22v2.87h0Z"/>
            </g>
          </g>
        </g>
      </g>
    </g>
    <g class="st2">
      <g class="st2">
        <g class="st2">
          <g class="st2">
            <g class="st2">
              <path d="M189.17,119.63h-.46l-1.09-2.87h.45l.31.86h1.19l.33-.86h.42l-1.13,2.87h-.02,0ZM188.5,117.94l.46,1.27.49-1.27h-.95Z"/>
            </g>
          </g>
        </g>
      </g>
    </g>
    <g class="st2">
      <g class="st2">
        <g class="st2">
          <g class="st2">
            <g class="st2">
              <path d="M187.97,119.63h-.58l-.87-2.43-.86,2.43h-.58v-2.87h.39v2.42l.86-2.42h.4l.87,2.42v-2.42h.39v2.87h-.02,0Z"/>
            </g>
          </g>
        </g>
      </g>
    </g>
    <g class="st2">
      <g class="st2">
        <g class="st2">
          <g class="st2">
            <g class="st2">
              <path d="M184.47,119.63h-.46l-1.09-2.87h.45l.3.86h1.19l.33-.86h.42l-1.13,2.87h0ZM183.79,117.94l.46,1.27.49-1.27h-.95Z"/>
            </g>
          </g>
        </g>
      </g>
    </g>
    <g class="st2">
      <g class="st2">
        <g class="st2">
          <g class="st2">
            <g class="st2">
              <path d="M183.24,119.63h-.41v-2.53h-1.51v-.34h1.92v2.87Z"/>
            </g>
          </g>
        </g>
      </g>
    </g>
    <g class="st2">
      <g class="st2">
        <g class="st2">
          <g class="st2">
            <g class="st2">
              <path d="M181.4,119.63h-.41v-2.87h.41v2.87Z"/>
            </g>
          </g>
        </g>
      </g>
    </g>
    <g class="st2">
      <g class="st2">
        <g class="st2">
          <g class="st2">
            <g class="st2">
              <path d="M180.58,119.63h-2.19v-.35h1.79v-.87h-1.65v-.33h1.65v-.97h-1.82v-.34h2.22v2.87h0Z"/>
            </g>
          </g>
        </g>
      </g>
    </g>
    <g class="st2">
      <g class="st2">
        <g class="st2">
          <g class="st2">
            <g class="st2">
              <path d="M176.96,119.63h-1.3c-.35,0-.61-.1-.76-.3-.09-.12-.13-.26-.13-.41,0-.18.05-.33.16-.45.06-.06.14-.12.24-.17-.15-.06-.27-.12-.35-.19-.14-.12-.2-.3-.2-.52,0-.19.06-.35.18-.5.18-.22.47-.34.87-.34h1.28v2.87h.01ZM175.67,117.09c-.25,0-.43.07-.54.21-.07.09-.1.19-.1.32,0,.21.1.35.3.43.11.04.24.06.42.06h.82v-1.01h-.9ZM175.81,118.42c-.17,0-.31.02-.41.07-.15.07-.23.2-.23.39s.08.31.24.38c.09.04.23.05.41.05h.74v-.89h-.75Z"/>
            </g>
          </g>
        </g>
      </g>
    </g>
    <g class="st2">
      <g class="st2">
        <g class="st2">
          <g class="st2">
            <g class="st2">
              <path d="M175.09,119.63h-.48l-.87-1.38-.87,1.38h-.48l1.14-1.71v-1.16h.41v1.16l1.14,1.71h0Z"/>
            </g>
          </g>
        </g>
      </g>
    </g>
    <g class="st2">
      <g class="st2">
        <g class="st2">
          <g class="st2">
            <g class="st2">
              <path d="M171.79,117.69c0-.16-.05-.29-.12-.4-.13-.19-.36-.29-.69-.29-.15,0-.28.02-.4.06-.23.08-.35.23-.35.43,0,.16.05.27.15.33.1.06.26.12.47.17l.4.09c.26.06.44.12.55.19.19.12.28.3.28.54,0,.26-.09.47-.27.63-.18.17-.44.25-.77.25-.31,0-.57-.07-.78-.22-.21-.15-.32-.38-.32-.7h.38c.02.15.06.27.13.35.12.15.32.22.61.22.23,0,.4-.05.5-.14.1-.1.15-.21.15-.34,0-.14-.06-.24-.18-.31-.08-.04-.25-.09-.53-.16l-.41-.09c-.2-.04-.35-.1-.46-.18-.19-.13-.28-.33-.28-.58,0-.32.12-.54.35-.68.24-.14.51-.21.83-.21.37,0,.65.09.86.27s.31.43.3.74h-.38l-.02.03h0Z"/>
            </g>
          </g>
        </g>
      </g>
    </g>
    <g class="st2">
      <g class="st2">
        <g class="st2">
          <g class="st2">
            <g class="st2">
              <path d="M167.66,119.22c-.2-.25-.3-.58-.3-.97,0-.43.11-.78.34-1.07.27-.33.65-.5,1.15-.5.46,0,.83.15,1.09.44.24.28.35.64.35,1.07,0,.39-.1.72-.3,1-.26.35-.64.53-1.15.53s-.93-.16-1.18-.49h0ZM168.02,117.39c-.16.25-.24.53-.24.85,0,.34.09.61.28.81.18.21.44.31.76.31s.57-.1.76-.31c.2-.2.29-.5.29-.9,0-.32-.08-.59-.25-.8s-.44-.33-.82-.33c-.36,0-.62.12-.78.37h0Z"/>
            </g>
          </g>
        </g>
      </g>
    </g>
    <g class="st2">
      <g class="st2">
        <g class="st2">
          <g class="st2">
            <g class="st2">
              <path d="M167.65,119.63h-2.09v-.35h1.68v-.87h-1.48v-.34h1.48v-1.3h.41v2.87h0Z"/>
            </g>
          </g>
        </g>
      </g>
    </g>
    <g class="st2">
      <g class="st2">
        <g class="st2">
          <g class="st2">
            <g class="st2">
              <path d="M165.86,119.63h-.41v-2.87h.41v2.87Z"/>
            </g>
          </g>
        </g>
      </g>
    </g>
    <g class="st2">
      <g class="st2">
        <g class="st2">
          <g class="st2">
            <g class="st2">
              <path d="M165.03,119.63h-2.19v-.35h1.79v-.87h-1.65v-.33h1.65v-.97h-1.82v-.34h2.22v2.87h0Z"/>
            </g>
          </g>
        </g>
      </g>
    </g>
    <g class="st2">
      <g class="st2">
        <g class="st2">
          <g class="st2">
            <g class="st2">
              <path d="M161.4,119.63h-.46l-1.09-2.87h.45l.3.86h1.19l.33-.86h.42l-1.13,2.87h0ZM160.73,117.94l.46,1.27.49-1.27h-.95Z"/>
            </g>
          </g>
        </g>
      </g>
    </g>
    <g class="st2">
      <g class="st2">
        <g class="st2">
          <g class="st2">
            <g class="st2">
              <path d="M160.19,119.63h-.58l-.87-2.43-.86,2.43h-.58v-2.87h.39v2.42l.86-2.42h.4l.87,2.42v-2.42h.39v2.87h-.02,0Z"/>
            </g>
          </g>
        </g>
      </g>
    </g>
    <g class="st2">
      <g class="st2">
        <g class="st2">
          <g class="st2">
            <g class="st2">
              <path d="M156.68,119.63h-.46l-1.09-2.87h.45l.31.86h1.19l.33-.86h.42l-1.13,2.87h-.02,0ZM156.01,117.94l.46,1.27.49-1.27h-.95Z"/>
            </g>
          </g>
        </g>
      </g>
    </g>
    <g class="st2">
      <g class="st2">
        <g class="st2">
          <g class="st2">
            <g class="st2">
              <path d="M155.47,119.63h-.41v-2.53h-1.51v-.34h1.92v2.87Z"/>
            </g>
          </g>
        </g>
      </g>
    </g>
    <g class="st2">
      <g class="st2">
        <g class="st2">
          <g class="st2">
            <g class="st2">
              <path d="M153.63,119.63h-.41v-2.87h.41v2.87Z"/>
            </g>
          </g>
        </g>
      </g>
    </g>
    <g class="st2">
      <g class="st2">
        <g class="st2">
          <g class="st2">
            <g class="st2">
              <path d="M152.8,119.63h-2.19v-.35h1.79v-.87h-1.65v-.33h1.65v-.97h-1.82v-.34h2.22v2.87h0Z"/>
            </g>
          </g>
        </g>
      </g>
    </g>
    <g class="st2">
      <g class="st2">
        <g class="st2">
          <g class="st2">
            <g class="st2">
              <path d="M148.31,119.63h-1.3c-.35,0-.61-.1-.76-.3-.09-.12-.13-.26-.13-.41,0-.18.05-.33.16-.45.06-.06.14-.12.24-.17-.15-.06-.27-.12-.35-.19-.14-.12-.2-.3-.2-.52,0-.19.06-.35.18-.5.18-.22.47-.34.87-.34h1.28v2.87h.01ZM147.02,117.09c-.25,0-.43.07-.54.21-.07.09-.1.19-.1.32,0,.21.1.35.3.43.1.04.24.06.42.06h.82v-1.01h-.9ZM147.16,118.42c-.17,0-.31.02-.41.07-.15.07-.23.2-.23.39s.08.31.24.38c.09.04.23.05.41.05h.74v-.89h-.75Z"/>
            </g>
          </g>
        </g>
      </g>
    </g>
    <g class="st2">
      <g class="st2">
        <g class="st2">
          <g class="st2">
            <g class="st2">
              <path d="M146.44,119.63h-.48l-.87-1.38-.87,1.38h-.48l1.14-1.71v-1.16h.41v1.16l1.14,1.71h0Z"/>
            </g>
          </g>
        </g>
      </g>
    </g>
    <g class="st2">
      <g class="st2">
        <g class="st2">
          <g class="st2">
            <g class="st2">
              <path d="M143.14,117.69c0-.16-.05-.29-.12-.4-.13-.19-.36-.29-.69-.29-.15,0-.28.02-.4.06-.23.08-.35.23-.35.43,0,.16.05.27.15.33.1.06.26.12.47.17l.4.09c.26.06.44.12.55.19.19.12.28.3.28.54,0,.26-.09.47-.27.63-.18.17-.44.25-.77.25-.31,0-.57-.07-.78-.22-.21-.15-.32-.38-.32-.7h.38c.02.15.06.27.13.35.12.15.32.22.61.22.23,0,.4-.05.5-.14.1-.1.15-.21.15-.34,0-.14-.06-.24-.18-.31-.08-.04-.25-.09-.53-.16l-.41-.09c-.2-.04-.35-.1-.46-.18-.19-.13-.28-.33-.28-.58,0-.32.12-.54.35-.68s.51-.21.82-.21c.37,0,.65.09.86.27s.31.43.3.74h-.38v.03h0Z"/>
            </g>
          </g>
        </g>
      </g>
    </g>
    <g class="st2">
      <g class="st2">
        <g class="st2">
          <g class="st2">
            <g class="st2">
              <path d="M139.01,119.22c-.2-.25-.3-.58-.3-.97,0-.43.11-.78.34-1.07.27-.33.65-.5,1.15-.5.46,0,.83.15,1.09.44.24.28.35.64.35,1.07,0,.39-.1.72-.3,1-.26.35-.64.53-1.15.53s-.93-.16-1.18-.49h0ZM139.37,117.39c-.16.25-.24.53-.24.85,0,.34.09.61.28.81.19.21.44.31.76.31s.57-.1.76-.31c.2-.2.3-.5.3-.9,0-.32-.08-.59-.25-.8s-.44-.33-.82-.33c-.36,0-.62.12-.78.37h0Z"/>
            </g>
          </g>
        </g>
      </g>
    </g>
    <g class="st2">
      <g class="st2">
        <g class="st2">
          <g class="st2">
            <g class="st2">
              <path d="M139,119.63h-2.09v-.35h1.68v-.87h-1.48v-.34h1.48v-1.3h.41v2.87h0Z"/>
            </g>
          </g>
        </g>
      </g>
    </g>
    <g class="st2">
      <g class="st2">
        <g class="st2">
          <g class="st2">
            <g class="st2">
              <path d="M137.21,119.63h-.41v-2.87h.41v2.87Z"/>
            </g>
          </g>
        </g>
      </g>
    </g>
    <g class="st2">
      <g class="st2">
        <g class="st2">
          <g class="st2">
            <g class="st2">
              <path d="M136.38,119.63h-2.19v-.35h1.79v-.87h-1.65v-.33h1.65v-.97h-1.82v-.34h2.22v2.87h0Z"/>
            </g>
          </g>
        </g>
      </g>
    </g>
    <g class="st2">
      <g class="st2">
        <g class="st2">
          <g class="st2">
            <g class="st2">
              <path d="M132.75,119.63h-.46l-1.09-2.87h.45l.31.86h1.19l.33-.86h.42l-1.13,2.87h-.02,0ZM132.08,117.94l.46,1.27.49-1.27h-.95Z"/>
            </g>
          </g>
        </g>
      </g>
    </g>
    <g class="st2">
      <g class="st2">
        <g class="st2">
          <g class="st2">
            <g class="st2">
              <path d="M131.54,119.63h-.58l-.87-2.43-.86,2.43h-.58v-2.87h.39v2.42l.86-2.42h.4l.87,2.42v-2.42h.39v2.87h-.02,0Z"/>
            </g>
          </g>
        </g>
      </g>
    </g>
    <g class="st2">
      <g class="st2">
        <g class="st2">
          <g class="st2">
            <g class="st2">
              <path d="M128.04,119.63h-.46l-1.09-2.87h.45l.31.86h1.19l.33-.86h.42l-1.13,2.87h-.02,0ZM127.36,117.94l.46,1.27.49-1.27h-.95Z"/>
            </g>
          </g>
        </g>
      </g>
    </g>
    <g class="st2">
      <g class="st2">
        <g class="st2">
          <g class="st2">
            <g class="st2">
              <path d="M126.82,119.63h-.41v-2.53h-1.51v-.34h1.92s0,2.87,0,2.87Z"/>
            </g>
          </g>
        </g>
      </g>
    </g>
    <g class="st2">
      <g class="st2">
        <g class="st2">
          <g class="st2">
            <g class="st2">
              <path d="M124.98,119.63h-.41v-2.87h.41v2.87Z"/>
            </g>
          </g>
        </g>
      </g>
    </g>
    <g class="st2">
      <g class="st2">
        <g class="st2">
          <g class="st2">
            <g class="st2">
              <path d="M124.15,119.63h-2.19v-.35h1.79v-.87h-1.65v-.33h1.65v-.97h-1.82v-.34h2.22v2.87h0Z"/>
            </g>
          </g>
        </g>
      </g>
    </g>
    <g class="st2">
      <g class="st2">
        <g class="st2">
          <g class="st2">
            <g class="st2">
              <path d="M119.66,119.63h-1.3c-.35,0-.61-.1-.76-.3-.09-.12-.13-.26-.13-.41,0-.18.05-.33.16-.45.06-.06.14-.12.24-.17-.15-.06-.27-.12-.35-.19-.14-.12-.2-.3-.2-.52,0-.19.06-.35.18-.5.18-.22.47-.34.87-.34h1.28v2.87h0ZM118.37,117.09c-.25,0-.43.07-.54.21-.07.09-.1.19-.1.32,0,.21.1.35.3.43.1.04.24.06.42.06h.82v-1.01h-.9ZM118.51,118.42c-.17,0-.31.02-.41.07-.15.07-.23.2-.23.39s.08.31.24.38c.09.04.23.05.41.05h.74v-.89s-.75,0-.75,0Z"/>
            </g>
          </g>
        </g>
      </g>
    </g>
    <g class="st2">
      <g class="st2">
        <g class="st2">
          <g class="st2">
            <g class="st2">
              <path d="M117.77,119.63h-.48l-.86-1.38-.87,1.38h-.48l1.15-1.71v-1.16h.41v1.16l1.13,1.72h0Z"/>
            </g>
          </g>
        </g>
      </g>
    </g>
    <g class="st2">
      <g class="st2">
        <g class="st2">
          <g class="st2">
            <g class="st2">
              <path d="M114.49,117.68c0-.16-.05-.29-.12-.4-.13-.19-.36-.29-.69-.28-.15,0-.28.02-.4.06-.23.08-.35.23-.35.43,0,.16.05.27.15.33.1.06.26.12.47.17l.4.09c.26.06.44.12.55.19.19.12.28.3.28.54,0,.26-.09.47-.27.63-.18.17-.44.25-.77.25-.31,0-.57-.07-.78-.22-.21-.15-.32-.38-.32-.7h.38c.02.15.06.27.13.35.12.15.32.22.61.22.23,0,.4-.05.5-.15s.15-.21.15-.34c0-.14-.06-.24-.18-.31-.08-.04-.25-.09-.53-.16l-.41-.09c-.2-.04-.35-.1-.46-.18-.19-.13-.28-.33-.28-.58,0-.32.12-.55.35-.68s.51-.21.82-.21c.37,0,.65.09.86.27s.31.43.3.74h-.38v.03h-.01Z"/>
            </g>
          </g>
        </g>
      </g>
    </g>
    <g class="st2">
      <g class="st2">
        <g class="st2">
          <g class="st2">
            <g class="st2">
              <path d="M110.4,119.25c-.2-.25-.31-.57-.31-.97,0-.43.1-.79.33-1.07.26-.34.64-.51,1.14-.52.46,0,.83.13,1.1.42.24.28.36.63.37,1.06,0,.39-.09.72-.29,1-.25.36-.64.54-1.14.55-.53,0-.93-.15-1.19-.47h-.01ZM110.73,117.41c-.16.25-.23.53-.23.85,0,.34.1.61.29.81s.44.3.77.3c.31,0,.56-.11.76-.32.19-.21.29-.51.28-.91,0-.32-.09-.58-.27-.8-.17-.22-.45-.32-.83-.32-.36,0-.62.13-.77.38h0Z"/>
            </g>
          </g>
        </g>
      </g>
    </g>
    <g class="st2">
      <g class="st2">
        <g class="st2">
          <g class="st2">
            <g class="st2">
              <path d="M110.47,119.66l-2.09.08v-.35l1.67-.06-.03-.87-1.48.05v-.34l1.46-.05-.05-1.3h.41l.11,2.85h0Z"/>
            </g>
          </g>
        </g>
      </g>
    </g>
    <g class="st2">
      <g class="st2">
        <g class="st2">
          <g class="st2">
            <g class="st2">
              <path d="M108.73,119.74l-.41.02-.17-2.86.41-.02.17,2.86Z"/>
            </g>
          </g>
        </g>
      </g>
    </g>
    <g class="st2">
      <g class="st2">
        <g class="st2">
          <g class="st2">
            <g class="st2">
              <path d="M107.98,119.78l-2.18.17-.03-.35,1.78-.14-.07-.87-1.65.13-.03-.33,1.65-.13-.08-.97-1.81.14-.03-.34,2.21-.17.25,2.86h-.01Z"/>
            </g>
          </g>
        </g>
      </g>
    </g>
    <g class="st2">
      <g class="st2">
        <g class="st2">
          <g class="st2">
            <g class="st2">
              <path d="M104.55,120.13l-.46.06-1.51-2.69.44-.06.43.81,1.18-.16.2-.89.41-.06-.7,2.99h0ZM103.64,118.54l.64,1.19.29-1.32-.93.13Z"/>
            </g>
          </g>
        </g>
      </g>
    </g>
    <g class="st2">
      <g class="st2">
        <g class="st2">
          <g class="st2">
            <g class="st2">
              <path d="M103.51,120.27l-.57.11-1.34-2.22-.34,2.53-.56.11-.58-2.81.38-.07.34,1.66c.01.06.03.15.05.29.03.13.05.28.08.43l.35-2.53.39-.07,1.34,2.21-.02-.09c-.01-.07-.04-.17-.07-.31s-.06-.24-.07-.31l-.34-1.66.38-.07.58,2.81h0Z"/>
            </g>
          </g>
        </g>
      </g>
    </g>
    <g class="st2">
      <g class="st2">
        <g class="st2">
          <g class="st2">
            <g class="st2">
              <path d="M100.25,120.95l-.44.11-1.8-2.51.43-.11.52.76,1.15-.28.09-.91.4-.1s-.35,3.04-.35,3.04ZM99.17,119.48l.77,1.12.14-1.34s-.91.22-.91.22Z"/>
            </g>
          </g>
        </g>
      </g>
    </g>
    <g class="st2">
      <g class="st2">
        <g class="st2">
          <g class="st2">
            <g class="st2">
              <path d="M99.2,121.22l-.39.11-.77-2.41-1.44.42-.1-.33,1.83-.53s.87,2.74.87,2.74Z"/>
            </g>
          </g>
        </g>
      </g>
    </g>
    <g class="st2">
      <g class="st2">
        <g class="st2">
          <g class="st2">
            <g class="st2">
              <path d="M97.52,121.72l-.39.12-.95-2.71.39-.12.95,2.71Z"/>
            </g>
          </g>
        </g>
      </g>
    </g>
    <g class="st2">
      <g class="st2">
        <g class="st2">
          <g class="st2">
            <g class="st2">
              <path d="M96.82,121.94l-2.04.71-.13-.33,1.67-.58-.31-.81-1.55.54-.12-.31,1.55-.54-.35-.91-1.7.59-.12-.32,2.07-.72,1.03,2.68h0Z"/>
            </g>
          </g>
        </g>
      </g>
    </g>
    <g class="st2">
      <g class="st2">
        <g class="st2">
          <g class="st2">
            <g class="st2">
              <path d="M92.87,123.44l-1.17.51c-.32.14-.59.15-.81.03-.13-.07-.23-.18-.3-.32-.08-.16-.09-.32-.05-.46.02-.08.07-.16.15-.25-.16,0-.29,0-.39-.03-.18-.06-.31-.19-.41-.39-.08-.17-.1-.34-.05-.53.07-.27.28-.49.64-.65l1.15-.5,1.25,2.59h0ZM90.61,121.66c-.23.1-.36.23-.4.4-.02.11,0,.21.05.33.09.19.24.28.45.27.11,0,.24-.04.4-.11l.73-.32-.44-.91-.8.35h.01ZM91.31,122.8c-.16.07-.27.14-.34.22-.11.12-.12.27-.04.44s.21.25.38.25c.1,0,.23-.04.39-.11l.66-.29-.39-.8-.67.3h0Z"/>
            </g>
          </g>
        </g>
      </g>
    </g>
    <g class="st2">
      <g class="st2">
        <g class="st2">
          <g class="st2">
            <g class="st2">
              <path d="M91.36,124.09l-.41.22-1.44-.8-.06,1.59-.42.22.13-2-.58-1,.35-.19.58,1s1.85.96,1.85.96Z"/>
            </g>
          </g>
        </g>
      </g>
    </g>
    <g class="st2">
      <g class="st2">
        <g class="st2">
          <g class="st2">
            <g class="st2">
              <path d="M87.58,123.84c-.1-.12-.22-.21-.33-.25-.22-.08-.46-.03-.73.15-.12.08-.21.17-.29.27-.14.19-.15.37-.02.54.09.12.2.19.32.19s.28-.04.48-.12l.37-.15c.24-.1.43-.14.55-.15.22,0,.4.09.54.28.15.21.21.43.16.66-.05.23-.21.44-.47.62-.25.17-.5.25-.76.25s-.48-.13-.68-.38l.31-.21c.11.11.21.18.31.21.19.05.39,0,.62-.15.19-.13.29-.26.31-.39s0-.25-.08-.35c-.08-.11-.19-.16-.33-.15-.09,0-.26.06-.52.17l-.38.15c-.19.07-.34.11-.48.1-.23,0-.42-.11-.57-.32-.19-.25-.23-.5-.12-.74s.29-.44.54-.62c.29-.2.58-.28.85-.25.28.03.5.17.69.42l-.31.21h.02Z"/>
            </g>
          </g>
        </g>
      </g>
    </g>
    <g class="st2">
      <g class="st2">
        <g class="st2">
          <g class="st2">
            <g class="st2">
              <path d="M85.94,127.41c-.32-.03-.63-.18-.93-.44-.32-.28-.51-.6-.58-.94-.07-.4.06-.78.38-1.12.31-.32.66-.47,1.05-.46.37.02.71.18,1.04.46.29.26.47.55.55.87.09.41-.03.79-.36,1.14-.35.36-.74.53-1.15.49ZM84.81,125.96c.08.27.24.51.48.73.25.22.52.34.8.35.28,0,.52-.1.74-.32.21-.21.3-.46.27-.72s-.18-.54-.48-.8c-.24-.21-.5-.33-.77-.36-.28-.03-.54.09-.79.34-.24.25-.32.51-.24.78h-.01Z"/>
            </g>
          </g>
        </g>
      </g>
    </g>
    <g class="st2">
      <g class="st2">
        <g class="st2">
          <g class="st2">
            <g class="st2">
              <path d="M86.41,127.54l-1.24,1.56-.28-.21,1-1.25-.71-.51-.88,1.1-.28-.2.88-1.1-1.06-.77.24-.3,2.33,1.68h0Z"/>
            </g>
          </g>
        </g>
      </g>
    </g>
    <g class="st2">
      <g class="st2">
        <g class="st2">
          <g class="st2">
            <g class="st2">
              <path d="M85.45,128.79l-.22.32-2.42-1.54.22-.32,2.42,1.54Z"/>
            </g>
          </g>
        </g>
      </g>
    </g>
    <g class="st2">
      <g class="st2">
        <g class="st2">
          <g class="st2">
            <g class="st2">
              <path d="M85.1,129.27l-1.05,1.75-.31-.17.86-1.43-.77-.42-.79,1.32-.29-.16.79-1.32-.86-.46-.87,1.46-.3-.16,1.06-1.78,2.52,1.37h.01Z"/>
            </g>
          </g>
        </g>
      </g>
    </g>
    <g class="st2">
      <g class="st2">
        <g class="st2">
          <g class="st2">
            <g class="st2">
              <path d="M83.7,131.97l-.16.4-3.07-.05.15-.38.91.03.41-1.02-.69-.58.14-.36,2.3,1.96h0ZM81.88,131.96l1.35.04-1.02-.85-.33.81h0Z"/>
            </g>
          </g>
        </g>
      </g>
    </g>
    <g class="st2">
      <g class="st2">
        <g class="st2">
          <g class="st2">
            <g class="st2">
              <path d="M83.38,132.72l-.13.52-2.56.24,2.18,1.29-.13.52-2.8-.63.08-.35,1.65.37c.06,0,.15.03.28.07.13.03.27.07.43.1l-2.17-1.29.09-.36,2.55-.24-.08-.02c-.07-.02-.17-.04-.32-.06s-.24-.05-.31-.06l-1.65-.37.08-.35,2.8.63h0Z"/>
            </g>
          </g>
        </g>
      </g>
    </g>
    <g class="st2">
      <g class="st2">
        <g class="st2">
          <g class="st2">
            <g class="st2">
              <path d="M82.83,135.56l-.04.42-2.95.76.04-.4.88-.21.09-1.07-.83-.36.03-.38,2.77,1.25h.01ZM81.09,136.03l1.3-.31-1.23-.54-.07.85h0Z"/>
            </g>
          </g>
        </g>
      </g>
    </g>
    <g class="st2">
      <g class="st2">
        <g class="st2">
          <g class="st2">
            <g class="st2">
              <path d="M82.78,136.42l.02.37-2.52.12.07,1.37-.34.02-.09-1.74,2.87-.13h-.01Z"/>
            </g>
          </g>
        </g>
      </g>
    </g>
    <g class="st2">
      <g class="st2">
        <g class="st2">
          <g class="st2">
            <g class="st2">
              <path d="M82.91,137.91l.06.37-2.84.39-.06-.37,2.84-.39Z"/>
            </g>
          </g>
        </g>
      </g>
    </g>
    <g class="st2">
      <g class="st2">
        <g class="st2">
          <g class="st2">
            <g class="st2">
              <path d="M82.97,138.41l.51,1.93-.34.08-.41-1.58-.85.2.38,1.46-.32.08-.38-1.46-.95.23.42,1.61-.33.08-.51-1.96,2.79-.67h-.01Z"/>
            </g>
          </g>
        </g>
      </g>
    </g>
    <g class="st2">
      <g class="st2">
        <g class="st2">
          <g class="st2">
            <g class="st2">
              <path d="M84.21,141.51l.7.99c.19.27.24.52.16.74-.05.13-.14.24-.27.32-.15.1-.31.14-.46.12-.08,0-.17-.04-.27-.09.04.15.05.27.03.37-.03.17-.14.32-.33.44-.16.1-.33.14-.52.13-.29-.02-.54-.18-.75-.48l-.69-.98,2.41-1.56h-.01ZM82.77,143.87c.14.19.29.29.47.3.11,0,.22-.03.32-.09.18-.11.24-.27.2-.46-.02-.1-.08-.22-.17-.35l-.44-.62-.85.55.48.68h-.01ZM83.81,143.04c.09.13.19.22.28.27.14.08.29.06.45-.04.16-.1.22-.23.19-.39-.02-.09-.08-.2-.17-.34l-.4-.56-.75.48.4.57h0Z"/>
            </g>
          </g>
        </g>
      </g>
    </g>
    <g class="st2">
      <g class="st2">
        <g class="st2">
          <g class="st2">
            <g class="st2">
              <path d="M85.04,142.66l.31.33-.47,1.5,1.61-.31.32.33-2.04.34-.87.76-.27-.28.87-.76.55-1.91h-.01Z"/>
            </g>
          </g>
        </g>
      </g>
    </g>
    <g class="st2">
      <g class="st2">
        <g class="st2">
          <g class="st2">
            <g class="st2">
              <path d="M85.78,146c-.09.13-.15.26-.16.38-.02.22.1.42.35.61.11.08.23.14.35.18.23.07.41.02.54-.14.1-.12.13-.24.09-.34-.04-.11-.12-.24-.26-.4l-.25-.29c-.16-.19-.26-.34-.3-.46-.07-.2-.03-.39.12-.58.16-.2.36-.32.61-.34.24-.03.49.05.75.24.24.17.39.38.47.61s.01.48-.19.72l-.29-.21c.08-.13.12-.25.12-.35,0-.18-.11-.36-.33-.52-.18-.13-.33-.19-.47-.17s-.25.08-.33.18c-.09.11-.11.22-.06.34.04.08.14.22.31.42l.26.3c.12.15.2.28.24.4.06.21,0,.41-.15.61-.2.25-.43.36-.7.33s-.52-.13-.76-.3c-.28-.21-.44-.44-.49-.69-.04-.26.03-.51.23-.75l.29.21h.01Z"/>
            </g>
          </g>
        </g>
      </g>
    </g>
    <g class="st2">
      <g class="st2">
        <g class="st2">
          <g class="st2">
            <g class="st2">
              <path d="M89.9,146.62c.05.31-.02.64-.21.99-.21.38-.48.64-.81.79-.4.17-.81.15-1.25-.06-.41-.2-.66-.49-.75-.86-.07-.35,0-.71.2-1.09.19-.34.44-.59.75-.74.4-.2.82-.18,1.27.04.47.23.73.55.8.95v-.02h0ZM88.71,148.07c.26-.14.47-.36.62-.64.16-.3.21-.58.15-.84s-.24-.46-.52-.6-.55-.16-.82-.07-.5.31-.69.66c-.15.28-.21.55-.16.82.04.26.23.48.56.65.32.16.6.16.86.02Z"/>
            </g>
          </g>
        </g>
      </g>
    </g>
    <g class="st2">
      <g class="st2">
        <g class="st2">
          <g class="st2">
            <g class="st2">
              <path d="M89.81,146.04l1.96.68-.12.33-1.57-.54-.31.81,1.38.48-.12.32-1.38-.48-.46,1.22-.38-.13,1.02-2.68h-.02Z"/>
            </g>
          </g>
        </g>
      </g>
    </g>
    <g class="st2">
      <g class="st2">
        <g class="st2">
          <g class="st2">
            <g class="st2">
              <path d="M91.33,146.53l.39.11-.84,2.74-.39-.11.84-2.74Z"/>
            </g>
          </g>
        </g>
      </g>
    </g>
    <g class="st2">
      <g class="st2">
        <g class="st2">
          <g class="st2">
            <g class="st2">
              <path d="M91.97,146.7l2.11.47-.08.34-1.73-.39-.21.85,1.6.36-.08.32-1.6-.36-.23.94,1.76.4-.08.33-2.14-.48.69-2.79h0Z"/>
            </g>
          </g>
        </g>
      </g>
    </g>
    <g class="st2">
      <g class="st2">
        <g class="st2">
          <g class="st2">
            <g class="st2">
              <path d="M95.29,147.32l.46.07.64,2.99-.44-.06-.17-.89-1.18-.17-.46.8-.41-.06,1.57-2.67h0ZM95.69,149.08l-.25-1.32-.68,1.18.93.13h0Z"/>
            </g>
          </g>
        </g>
      </g>
    </g>
    <g class="st2">
      <g class="st2">
        <g class="st2">
          <g class="st2">
            <g class="st2">
              <path d="M96.34,147.46l.58.06.6,2.5,1.11-2.33.58.06-.31,2.85-.39-.04.18-1.68c0-.06.02-.15.03-.29.02-.13.03-.28.05-.43l-1.11,2.32-.4-.04-.61-2.49v.09c-.02.07-.03.18-.04.32-.01.14-.02.25-.03.32l-.18,1.68-.39-.04.31-2.85h.02Z"/>
            </g>
          </g>
        </g>
      </g>
    </g>
    <g class="st2">
      <g class="st2">
        <g class="st2">
          <g class="st2">
            <g class="st2">
              <path d="M99.73,147.74l.46.03.89,2.93-.45-.03-.25-.88-1.19-.08-.38.84-.42-.03,1.33-2.79h0ZM100.28,149.47l-.37-1.29-.57,1.23.94.06Z"/>
            </g>
          </g>
        </g>
      </g>
    </g>
    <g class="st2">
      <g class="st2">
        <g class="st2">
          <g class="st2">
            <g class="st2">
              <path d="M100.88,147.81l.41.02-.11,2.52,1.51.06-.02.34-1.92-.08.13-2.87h0Z"/>
            </g>
          </g>
        </g>
      </g>
    </g>
    <g class="st2">
      <g class="st2">
        <g class="st2">
          <g class="st2">
            <g class="st2">
              <path d="M102.68,147.87h.41l-.09,2.88h-.41l.09-2.88Z"/>
            </g>
          </g>
        </g>
      </g>
    </g>
    <g class="st2">
      <g class="st2">
        <g class="st2">
          <g class="st2">
            <g class="st2">
              <path d="M103.46,147.9l2.19.04v.35l-1.79-.03-.02.87,1.65.03v.33l-1.66-.03-.02.97,1.82.03v.34l-2.22-.04.06-2.87h-.01Z"/>
            </g>
          </g>
        </g>
      </g>
    </g>
    <g class="st2">
      <g class="st2">
        <g class="st2">
          <g class="st2">
            <g class="st2">
              <path d="M108.74,147.92l1.3-.02c.35,0,.61.09.76.29.09.12.14.25.14.41,0,.18-.05.33-.16.45-.06.06-.14.12-.24.17.16.05.27.12.35.19.14.12.21.29.21.51,0,.18-.06.35-.18.5-.18.23-.47.34-.87.35h-1.28l-.04-2.85h.01ZM109.91,149.12c.17,0,.31-.03.4-.07.15-.07.23-.2.22-.39,0-.19-.08-.31-.25-.38-.09-.04-.23-.05-.41-.05h-.74v.9h.78ZM110.06,150.44c.25,0,.43-.07.54-.21.07-.09.1-.2.1-.32,0-.21-.1-.35-.3-.42-.11-.04-.24-.06-.42-.06h-.82v1.02h.9Z"/>
            </g>
          </g>
        </g>
      </g>
    </g>
    <g class="st2">
      <g class="st2">
        <g class="st2">
          <g class="st2">
            <g class="st2">
              <path d="M110.59,147.9h.48l.89,1.35.84-1.39h.48l-1.11,1.72.02,1.16h-.41l-.02-1.15-1.17-1.69h0Z"/>
            </g>
          </g>
        </g>
      </g>
    </g>
    <g class="st2">
      <g class="st2">
        <g class="st2">
          <g class="st2">
            <g class="st2">
              <path d="M113.92,149.78c.01.16.06.29.13.39.13.19.37.28.7.27.15,0,.28-.03.4-.07.23-.09.35-.23.34-.44,0-.16-.06-.27-.16-.33-.1-.06-.26-.12-.48-.16l-.4-.08c-.26-.05-.44-.11-.55-.18-.19-.12-.29-.29-.29-.53,0-.26.08-.47.26-.64s.43-.26.77-.27c.31,0,.57.06.79.2s.33.37.34.69h-.38c-.02-.14-.07-.26-.13-.34-.12-.15-.33-.22-.61-.21-.23,0-.4.06-.49.16-.1.1-.15.21-.14.34,0,.14.07.24.19.3.08.04.26.09.53.14l.41.08c.2.04.35.1.46.17.19.13.29.32.29.58,0,.32-.1.55-.34.69-.23.14-.51.22-.82.22-.37,0-.65-.08-.87-.25-.21-.18-.32-.42-.32-.73h.38,0Z"/>
            </g>
          </g>
        </g>
      </g>
    </g>
    <g class="st2">
      <g class="st2">
        <g class="st2">
          <g class="st2">
            <g class="st2">
              <path d="M118.02,148.14c.21.25.31.57.32.97.01.43-.09.79-.31,1.08-.26.34-.64.51-1.13.53-.46,0-.83-.12-1.1-.41-.24-.28-.37-.63-.38-1.06-.01-.39.08-.72.28-1,.25-.36.63-.55,1.14-.56.53,0,.93.14,1.19.46h-.01ZM117.7,149.98c.15-.25.23-.53.22-.85,0-.34-.11-.61-.3-.81s-.45-.3-.77-.29c-.31,0-.56.12-.75.32-.19.21-.28.51-.27.91,0,.32.1.58.27.8.17.21.45.32.83.31.36,0,.62-.14.77-.39h0Z"/>
            </g>
          </g>
        </g>
      </g>
    </g>
    <g class="st2">
      <g class="st2">
        <g class="st2">
          <g class="st2">
            <g class="st2">
              <path d="M118.01,147.73l2.09-.05v.35l-1.67.04.02.87,1.48-.03v.34l-1.47.03.03,1.3h-.41l-.07-2.86h0Z"/>
            </g>
          </g>
        </g>
      </g>
    </g>
    <g class="st2">
      <g class="st2">
        <g class="st2">
          <g class="st2">
            <g class="st2">
              <path d="M119.81,147.69h.41l.07,2.86h-.41l-.07-2.86Z"/>
            </g>
          </g>
        </g>
      </g>
    </g>
    <g class="st2">
      <g class="st2">
        <g class="st2">
          <g class="st2">
            <g class="st2">
              <path d="M120.64,147.67l2.19-.04v.35l-1.78.03.02.87,1.65-.03v.33l-1.65.03.02.97,1.82-.03v.34l-2.21.04-.06-2.87h0Z"/>
            </g>
          </g>
        </g>
      </g>
    </g>
    <g class="st2">
      <g class="st2">
        <g class="st2">
          <g class="st2">
            <g class="st2">
              <path d="M124.3,147.62h.46l1.13,2.85h-.45l-.32-.85h-1.19l-.32.88h-.42l1.1-2.88h.01ZM124.99,149.3l-.47-1.26-.47,1.27h.94Z"/>
            </g>
          </g>
        </g>
      </g>
    </g>
    <g class="st2">
      <g class="st2">
        <g class="st2">
          <g class="st2">
            <g class="st2">
              <path d="M125.54,147.61h.58l.87,2.42.86-2.43h.58v2.87h-.39v-2.42l-.86,2.42h-.4l-.87-2.42v2.42h-.39v-2.87h.02Z"/>
            </g>
          </g>
        </g>
      </g>
    </g>
    <g class="st2">
      <g class="st2">
        <g class="st2">
          <g class="st2">
            <g class="st2">
              <path d="M129.09,147.63h.46l1.05,2.89h-.45l-.29-.87-1.19-.02-.34.85h-.42l1.18-2.86h0ZM129.73,149.33l-.44-1.27-.5,1.26h.94Z"/>
            </g>
          </g>
        </g>
      </g>
    </g>
    <g class="st2">
      <g class="st2">
        <g class="st2">
          <g class="st2">
            <g class="st2">
              <path d="M130.36,147.65h.41l-.08,2.54,1.51.04v.34l-1.93-.05.09-2.87h0Z"/>
            </g>
          </g>
        </g>
      </g>
    </g>
    <g class="st2">
      <g class="st2">
        <g class="st2">
          <g class="st2">
            <g class="st2">
              <path d="M132.23,147.7l.41.02-.12,2.87-.41-.02.12-2.87Z"/>
            </g>
          </g>
        </g>
      </g>
    </g>
    <g class="st2">
      <g class="st2">
        <g class="st2">
          <g class="st2">
            <g class="st2">
              <path d="M133.09,147.74l2.18.12-.02.35-1.79-.09-.05.87,1.65.09-.02.33-1.65-.09-.06.97,1.82.1-.02.34-2.21-.12.17-2.87h0Z"/>
            </g>
          </g>
        </g>
      </g>
    </g>
    <g class="st2">
      <g class="st2">
        <g class="st2">
          <g class="st2">
            <g class="st2">
              <path d="M137.77,148.08l1.29.15c.35.04.59.17.71.39.07.13.1.27.08.42-.02.18-.1.32-.22.42-.06.05-.15.1-.26.14.15.07.25.15.32.23.12.14.16.32.14.54-.02.18-.11.34-.25.48-.21.2-.51.28-.91.23l-1.27-.15.37-2.85h0ZM138.73,150.75c.25.03.44-.02.56-.14.08-.08.13-.18.14-.3.03-.21-.05-.36-.24-.46-.1-.05-.23-.09-.41-.11l-.81-.1-.13,1,.88.1h.01ZM138.76,149.42c.17.02.31,0,.41-.02.16-.05.25-.17.28-.36.02-.19-.04-.32-.19-.4-.09-.05-.22-.08-.4-.1l-.73-.09-.11.88.75.09h-.01Z"/>
            </g>
          </g>
        </g>
      </g>
    </g>
    <g class="st2">
      <g class="st2">
        <g class="st2">
          <g class="st2">
            <g class="st2">
              <path d="M139.76,148.33l.47.07.62,1.5,1.09-1.22.47.08-1.42,1.51-.2,1.14-.4-.06.2-1.14-.83-1.87h0Z"/>
            </g>
          </g>
        </g>
      </g>
    </g>
    <g class="st2">
      <g class="st2">
        <g class="st2">
          <g class="st2">
            <g class="st2">
              <path d="M142.73,150.84c-.03.16-.03.3,0,.41.08.21.27.36.59.43.14.03.28.04.4.03.25-.03.4-.14.45-.34.04-.15.02-.27-.06-.36s-.22-.18-.41-.27l-.36-.18c-.23-.11-.39-.22-.48-.31-.15-.16-.19-.35-.13-.58.07-.25.21-.43.42-.55s.49-.14.81-.06c.3.07.53.2.7.39s.22.44.13.75l-.37-.09c.02-.15,0-.28-.03-.37-.08-.17-.25-.29-.53-.36-.22-.05-.4-.04-.52.03-.12.07-.2.17-.23.29-.04.14,0,.25.09.34.07.06.22.15.47.27l.37.18c.18.09.31.18.39.28.15.17.19.38.12.63-.08.31-.25.5-.51.58s-.54.08-.85,0c-.35-.08-.6-.24-.76-.46-.15-.22-.19-.48-.11-.78l.37.09h.04Z"/>
            </g>
          </g>
        </g>
      </g>
    </g>
    <g class="st2">
      <g class="st2">
        <g class="st2">
          <g class="st2">
            <g class="st2">
              <path d="M147.27,150.57c.1.3.09.64-.05,1.01-.14.4-.37.7-.68.9-.37.23-.78.27-1.25.12-.44-.14-.73-.39-.88-.75-.13-.34-.12-.71.03-1.11.13-.37.34-.65.62-.84.36-.25.79-.3,1.26-.15.5.16.82.44.95.82h0ZM146.31,152.18c.23-.18.41-.42.51-.72.11-.32.12-.6,0-.85s-.31-.43-.61-.52c-.29-.09-.57-.08-.82.05s-.45.38-.58.76c-.11.3-.12.58-.03.83.09.26.31.44.66.56.34.11.62.07.86-.11h.01Z"/>
            </g>
          </g>
        </g>
      </g>
    </g>
    <g class="st2">
      <g class="st2">
        <g class="st2">
          <g class="st2">
            <g class="st2">
              <path d="M148.12,150.37l1.46.84-.12.32-1.18-.68-.3.78,1.03.59-.12.31-1.03-.59-.45,1.17-.29-.16.99-2.58h.02,0Z"/>
            </g>
          </g>
        </g>
      </g>
    </g>
    <g class="st2">
      <g class="st2">
        <g class="st2">
          <g class="st2">
            <g class="st2">
              <path d="M149.54,151.26l.35.2-1.5,2.45-.35-.2,1.5-2.45Z"/>
            </g>
          </g>
        </g>
      </g>
    </g>
    <g class="st2">
      <g class="st2">
        <g class="st2">
          <g class="st2">
            <g class="st2">
              <path d="M150.42,151.8l1.78,1.16-.21.29-1.46-.95-.51.71,1.34.88-.19.27-1.34-.88-.57.79,1.48.97-.2.28-1.8-1.18,1.68-2.33h0Z"/>
            </g>
          </g>
        </g>
      </g>
    </g>
    <g class="st2">
      <g class="st2">
        <g class="st2">
          <g class="st2">
            <g class="st2">
              <path d="M153.54,154.06l.34.28-1.12,2.79-.33-.27.35-.82-.88-.72-.82.44-.31-.25,2.76-1.45h.01ZM152.9,155.72l.51-1.22-1.21.65.69.57h.01Z"/>
            </g>
          </g>
        </g>
      </g>
    </g>
    <g class="st2">
      <g class="st2">
        <g class="st2">
          <g class="st2">
            <g class="st2">
              <path d="M154.7,155.08l.39.4-1.24,2.2,2.39-1.03.39.4-2.15,1.91-.26-.27,1.27-1.13s.12-.1.22-.19.21-.18.33-.29l-2.38,1.02-.27-.28,1.23-2.2-.07.06c-.05.05-.13.12-.24.22s-.18.17-.23.22l-1.27,1.13-.26-.27,2.15-1.91h0Z"/>
            </g>
          </g>
        </g>
      </g>
    </g>
    <g class="st2">
      <g class="st2">
        <g class="st2">
          <g class="st2">
            <g class="st2">
              <path d="M157.16,157.89l.26.35-1.77,2.43-.25-.33.54-.71-.66-.89-.89.24-.23-.31,3.01-.76v-.02h0ZM156.13,159.35l.79-1.06-1.32.35.53.71h0Z"/>
            </g>
          </g>
        </g>
      </g>
    </g>
    <g class="st2">
      <g class="st2">
        <g class="st2">
          <g class="st2">
            <g class="st2">
              <path d="M158.03,159.2l.18.33-2.25,1.15.68,1.22-.3.16-.86-1.55,2.56-1.3h0Z"/>
            </g>
          </g>
        </g>
      </g>
    </g>
    <g class="st2">
      <g class="st2">
        <g class="st2">
          <g class="st2">
            <g class="st2">
              <path d="M158.95,161.03l.15.35-2.67,1.05-.15-.35,2.67-1.05Z"/>
            </g>
          </g>
        </g>
      </g>
    </g>
    <g class="st2">
      <g class="st2">
        <g class="st2">
          <g class="st2">
            <g class="st2">
              <path d="M159.35,162.04l.58,1.91-.34.09-.47-1.57-.84.23.44,1.45-.32.09-.44-1.45-.94.26.48,1.59-.33.09-.58-1.94,2.77-.76h0Z"/>
            </g>
          </g>
        </g>
      </g>
    </g>
    <g class="st2">
      <g class="st2">
        <g class="st2">
          <g class="st2">
            <g class="st2">
              <path d="M160.1,166.33l-.06,1.18c-.02.32-.13.54-.34.67-.12.07-.26.11-.42.1-.18,0-.33-.06-.44-.17-.06-.05-.11-.13-.16-.23-.06.14-.13.24-.21.3-.13.12-.31.17-.53.16-.18,0-.35-.07-.49-.19-.21-.18-.31-.44-.29-.8l.06-1.16,2.87.14h.01ZM157.51,167.37c0,.23.05.39.18.5.08.07.19.1.31.11.21,0,.36-.07.44-.25.04-.09.07-.22.08-.37l.04-.74-1.01-.05-.04.8ZM158.84,167.31c0,.16,0,.28.05.37.06.14.19.21.38.22.19,0,.32-.06.39-.2.04-.08.07-.2.07-.36l.03-.67-.89-.04-.04.68h0Z"/>
            </g>
          </g>
        </g>
      </g>
    </g>
    <g class="st2">
      <g class="st2">
        <g class="st2">
          <g class="st2">
            <g class="st2">
              <path d="M159.91,168.62l-.1.42-1.54.47,1.16,1.07-.1.43-1.43-1.38-1.13-.25.09-.36,1.13.25,1.92-.64h0Z"/>
            </g>
          </g>
        </g>
      </g>
    </g>
    <g class="st2">
      <g class="st2">
        <g class="st2">
          <g class="st2">
            <g class="st2">
              <path d="M156.99,171.37c-.15-.06-.29-.09-.41-.07-.23.03-.41.17-.55.45-.06.12-.1.24-.11.36-.03.23.05.39.24.47.14.07.26.07.37.02.1-.05.22-.16.35-.32l.25-.29c.16-.19.29-.31.4-.37.19-.1.39-.1.6,0,.23.11.39.27.46.5.07.22.04.47-.1.74-.13.25-.31.44-.53.55s-.48.1-.77-.03l.16-.32c.15.05.27.07.38.05.19-.03.34-.17.46-.4.1-.19.12-.35.08-.47s-.12-.21-.24-.27c-.13-.06-.25-.05-.35.02-.07.05-.19.17-.37.37l-.26.3c-.12.14-.24.24-.36.3-.2.1-.42.09-.65-.02-.29-.14-.44-.33-.47-.58-.02-.25.03-.51.16-.76.16-.3.36-.5.61-.59s.52-.07.8.06l-.16.32v-.02h0Z"/>
            </g>
          </g>
        </g>
      </g>
    </g>
    <g class="st2">
      <g class="st2">
        <g class="st2">
          <g class="st2">
            <g class="st2">
              <path d="M156.03,175.63c-.32,0-.65-.1-.97-.33-.36-.24-.59-.53-.69-.86-.13-.39-.05-.77.23-1.14.26-.35.58-.54.97-.57.37-.02.73.09,1.08.33.32.22.54.48.66.79.15.39.08.78-.2,1.16-.3.4-.65.6-1.06.61h-.02ZM154.72,174.33c.12.26.3.48.57.66.28.19.56.27.83.25.28-.02.5-.15.68-.39.17-.23.23-.48.17-.74-.06-.26-.25-.5-.58-.73-.26-.18-.53-.27-.81-.26s-.52.15-.73.43c-.2.27-.24.53-.13.79h0Z"/>
            </g>
          </g>
        </g>
      </g>
    </g>
    <g class="st2">
      <g class="st2">
        <g class="st2">
          <g class="st2">
            <g class="st2">
              <path d="M156.01,176.2l-1.4,1.41-.26-.24,1.13-1.14-.65-.58-.99,1-.25-.23.99-1-.97-.88.27-.28,2.13,1.92v.02h0Z"/>
            </g>
          </g>
        </g>
      </g>
    </g>
    <g class="st2">
      <g class="st2">
        <g class="st2">
          <g class="st2">
            <g class="st2">
              <path d="M154.58,177.58l-.3.26-1.97-2.09.3-.26,1.97,2.09Z"/>
            </g>
          </g>
        </g>
      </g>
    </g>
    <g class="st2">
      <g class="st2">
        <g class="st2">
          <g class="st2">
            <g class="st2">
              <path d="M153.79,178.25l-1.68,1.23-.22-.28,1.38-1-.54-.68-1.27.93-.21-.26,1.27-.93-.61-.76-1.4,1.02-.21-.27,1.71-1.24,1.79,2.24h-.01Z"/>
            </g>
          </g>
        </g>
      </g>
    </g>
    <g class="st2">
      <g class="st2">
        <g class="st2">
          <g class="st2">
            <g class="st2">
              <path d="M150.4,180.41l-.4.21-2.38-2,.39-.2.69.61,1.04-.54-.14-.89.36-.19.44,3.01h0ZM148.97,179.25l1.03.89-.21-1.32-.82.43h0Z"/>
            </g>
          </g>
        </g>
      </g>
    </g>
    <g class="st2">
      <g class="st2">
        <g class="st2">
          <g class="st2">
            <g class="st2">
              <path d="M149.02,181.1l-.54.21-1.74-1.93.16,2.54-.53.21-1.12-2.64.36-.14.66,1.56c.02.05.06.14.11.27s.11.26.17.4l-.16-2.53.37-.14,1.74,1.92-.04-.08c-.03-.07-.07-.16-.13-.29-.06-.13-.1-.23-.13-.29l-.66-1.56.36-.14,1.13,2.64h-.01Z"/>
            </g>
          </g>
        </g>
      </g>
    </g>
    <g class="st2">
      <g class="st2">
        <g class="st2">
          <g class="st2">
            <g class="st2">
              <path d="M145.42,182.34l-.44.12-1.87-2.46.43-.12.54.74,1.14-.31.06-.91.4-.11-.26,3.04h0ZM144.29,180.89l.8,1.09.1-1.34-.9.25h0Z"/>
            </g>
          </g>
        </g>
      </g>
    </g>
    <g class="st2">
      <g class="st2">
        <g class="st2">
          <g class="st2">
            <g class="st2">
              <path d="M144,182.69l-.4.08-.51-2.47-1.47.28-.07-.34,1.87-.35.58,2.81h0Z"/>
            </g>
          </g>
        </g>
      </g>
    </g>
    <g class="st2">
      <g class="st2">
        <g class="st2">
          <g class="st2">
            <g class="st2">
              <path d="M142.02,183.03l-.41.06-.42-2.84.41-.06.42,2.84Z"/>
            </g>
          </g>
        </g>
      </g>
    </g>
    <g class="st2">
      <g class="st2">
        <g class="st2">
          <g class="st2">
            <g class="st2">
              <path d="M141.04,183.16l-2.18.17-.03-.35,1.78-.14-.08-.87-1.65.13-.03-.33,1.65-.13-.09-.97-1.81.15-.03-.34,2.21-.18.25,2.86h0Z"/>
            </g>
          </g>
        </g>
      </g>
    </g>
    <g class="st2">
      <g class="st2">
        <g class="st2">
          <g class="st2">
            <g class="st2">
              <path d="M137.17,183.27h-1.3c-.35,0-.61-.1-.76-.3-.09-.12-.13-.26-.13-.41,0-.18.05-.33.16-.45.06-.06.14-.12.24-.17-.15-.06-.27-.12-.35-.19-.14-.12-.2-.3-.2-.52,0-.19.06-.35.18-.5.18-.22.47-.34.87-.34h1.28v2.87h.01ZM135.88,180.73c-.25,0-.43.07-.54.21-.07.09-.1.19-.1.32,0,.21.1.35.3.43.1.04.24.06.42.06h.82v-1.01h-.9ZM136.02,182.06c-.17,0-.31.02-.41.07-.15.07-.23.2-.23.39s.08.31.24.38c.09.04.23.05.41.05h.74v-.89h-.75Z"/>
            </g>
          </g>
        </g>
      </g>
    </g>
    <g class="st2">
      <g class="st2">
        <g class="st2">
          <g class="st2">
            <g class="st2">
              <path d="M135.29,183.27h-.48l-.87-1.38-.87,1.38h-.48l1.14-1.71v-1.16h.41v1.16l1.14,1.71h0Z"/>
            </g>
          </g>
        </g>
      </g>
    </g>
    <g class="st2">
      <g class="st2">
        <g class="st2">
          <g class="st2">
            <g class="st2">
              <path d="M132,181.33c0-.16-.05-.29-.12-.4-.13-.19-.36-.29-.69-.29-.15,0-.28.02-.4.06-.23.08-.35.22-.35.43,0,.16.05.27.15.33.1.06.26.12.47.17l.4.09c.26.06.44.12.55.19.19.12.28.3.28.54,0,.26-.09.47-.27.63-.18.17-.44.25-.77.25-.31,0-.57-.07-.78-.22-.21-.15-.32-.38-.32-.7h.38c.02.15.06.27.13.35.12.15.32.22.61.22.23,0,.4-.05.5-.14.1-.1.15-.21.15-.34,0-.14-.06-.24-.18-.31-.08-.04-.25-.09-.53-.16l-.41-.09c-.2-.04-.35-.11-.46-.18-.19-.13-.28-.33-.28-.58,0-.32.12-.54.35-.68s.51-.21.82-.21c.37,0,.65.09.86.27.21.18.31.43.3.74h-.38v.03h0Z"/>
            </g>
          </g>
        </g>
      </g>
    </g>
    <g class="st2">
      <g class="st2">
        <g class="st2">
          <g class="st2">
            <g class="st2">
              <path d="M127.87,182.86c-.2-.25-.3-.58-.3-.97,0-.43.11-.79.34-1.07.27-.33.65-.5,1.15-.5.46,0,.83.15,1.09.44.24.28.35.64.35,1.07,0,.39-.1.72-.3,1-.26.35-.64.53-1.15.53s-.93-.16-1.18-.49h0ZM128.23,181.03c-.16.25-.24.53-.24.85,0,.34.09.61.28.82s.44.31.76.31.57-.1.76-.31c.2-.2.3-.5.3-.9,0-.32-.08-.59-.25-.8-.17-.22-.44-.33-.82-.33-.36,0-.62.12-.78.37h0Z"/>
            </g>
          </g>
        </g>
      </g>
    </g>
    <g class="st2">
      <g class="st2">
        <g class="st2">
          <g class="st2">
            <g class="st2">
              <path d="M127.86,183.27h-2.09v-.35h1.68v-.87h-1.48v-.34h1.48v-1.3h.41v2.87h0Z"/>
            </g>
          </g>
        </g>
      </g>
    </g>
    <g class="st2">
      <g class="st2">
        <g class="st2">
          <g class="st2">
            <g class="st2">
              <path d="M126.07,183.27h-.41v-2.87h.41v2.87Z"/>
            </g>
          </g>
        </g>
      </g>
    </g>
    <g class="st2">
      <g class="st2">
        <g class="st2">
          <g class="st2">
            <g class="st2">
              <path d="M125.24,183.27h-2.19v-.35h1.79v-.87h-1.65v-.33h1.65v-.97h-1.82v-.34h2.22v2.87h0Z"/>
            </g>
          </g>
        </g>
      </g>
    </g>
    <g class="st2">
      <g class="st2">
        <g class="st2">
          <g class="st2">
            <g class="st2">
              <path d="M121.61,183.27h-.46l-1.09-2.87h.45l.31.86h1.19l.33-.86h.42l-1.13,2.87h-.02ZM120.94,181.58l.46,1.27.49-1.27h-.95Z"/>
            </g>
          </g>
        </g>
      </g>
    </g>
    <g class="st2">
      <g class="st2">
        <g class="st2">
          <g class="st2">
            <g class="st2">
              <path d="M120.4,183.27h-.58l-.87-2.43-.86,2.43h-.58v-2.87h.39v2.42l.86-2.42h.4l.87,2.42v-2.42h.39v2.87h-.02Z"/>
            </g>
          </g>
        </g>
      </g>
    </g>
    <g class="st2">
      <g class="st2">
        <g class="st2">
          <g class="st2">
            <g class="st2">
              <path d="M116.89,183.27h-.46l-1.09-2.87h.45l.31.86h1.19l.33-.86h.42l-1.13,2.87h-.02ZM116.22,181.58l.46,1.27.49-1.27h-.95Z"/>
            </g>
          </g>
        </g>
      </g>
    </g>
    <g class="st2">
      <g class="st2">
        <g class="st2">
          <g class="st2">
            <g class="st2">
              <path d="M115.68,183.27h-.41v-2.53h-1.51v-.34h1.92s0,2.87,0,2.87Z"/>
            </g>
          </g>
        </g>
      </g>
    </g>
    <g class="st2">
      <g class="st2">
        <g class="st2">
          <g class="st2">
            <g class="st2">
              <path d="M113.84,183.27h-.41v-2.87h.41v2.87Z"/>
            </g>
          </g>
        </g>
      </g>
    </g>
    <g class="st2">
      <g class="st2">
        <g class="st2">
          <g class="st2">
            <g class="st2">
              <path d="M113.01,183.27h-2.19v-.35h1.79v-.87h-1.65v-.33h1.65v-.97h-1.82v-.34h2.22v2.87h0Z"/>
            </g>
          </g>
        </g>
      </g>
    </g>
    <g class="st2">
      <g class="st2">
        <g class="st2">
          <g class="st2">
            <g class="st2">
              <path d="M108.52,183.27h-1.3c-.35,0-.61-.1-.76-.3-.09-.12-.13-.26-.13-.41,0-.18.05-.33.16-.45.06-.06.14-.12.24-.17-.15-.06-.27-.12-.35-.19-.14-.12-.2-.3-.2-.52,0-.19.06-.35.18-.5.18-.22.47-.34.87-.34h1.28v2.87h0ZM107.23,180.73c-.25,0-.43.07-.54.21-.07.09-.1.19-.1.32,0,.21.1.35.3.43.1.04.24.06.42.06h.82v-1.01h-.9ZM107.37,182.06c-.17,0-.31.02-.41.07-.15.07-.23.2-.23.39s.08.31.24.38c.09.04.23.05.41.05h.74v-.89h-.75,0Z"/>
            </g>
          </g>
        </g>
      </g>
    </g>
    <g class="st2">
      <g class="st2">
        <g class="st2">
          <g class="st2">
            <g class="st2">
              <path d="M106.64,183.27h-.48l-.87-1.38-.87,1.38h-.48l1.14-1.71v-1.16h.41v1.16l1.14,1.71h.01Z"/>
            </g>
          </g>
        </g>
      </g>
    </g>
    <g class="st2">
      <g class="st2">
        <g class="st2">
          <g class="st2">
            <g class="st2">
              <path d="M103.35,181.33c0-.16-.05-.29-.12-.4-.13-.19-.36-.29-.69-.29-.15,0-.28.02-.4.06-.23.08-.35.22-.35.43,0,.16.05.27.15.33s.26.12.47.17l.4.09c.26.06.44.12.55.19.19.12.28.3.28.54,0,.26-.09.47-.27.63-.18.17-.44.25-.77.25-.31,0-.57-.07-.78-.22s-.32-.38-.32-.7h.38c.02.15.06.27.13.35.12.15.32.22.61.22.23,0,.4-.05.5-.14.1-.1.15-.21.15-.34,0-.14-.06-.24-.18-.31-.08-.04-.25-.09-.53-.16l-.41-.09c-.2-.04-.35-.11-.46-.18-.19-.13-.28-.33-.28-.58,0-.32.12-.54.35-.68s.51-.21.82-.21c.37,0,.65.09.86.27.21.18.31.43.3.74h-.38v.03h-.01Z"/>
            </g>
          </g>
        </g>
      </g>
    </g>
    <g class="st2">
      <g class="st2">
        <g class="st2">
          <g class="st2">
            <g class="st2">
              <path d="M99.22,182.86c-.2-.25-.3-.58-.3-.97,0-.43.11-.79.34-1.07.27-.33.65-.5,1.15-.5.46,0,.83.15,1.09.44.24.28.35.64.35,1.07,0,.39-.1.72-.3,1-.26.35-.64.53-1.15.53s-.93-.16-1.18-.49h0ZM99.58,181.03c-.16.25-.24.53-.24.85,0,.34.09.61.28.82s.44.31.76.31.57-.1.76-.31c.2-.2.3-.5.3-.9,0-.32-.08-.59-.25-.8-.17-.22-.44-.33-.82-.33-.36,0-.62.12-.78.37h-.01Z"/>
            </g>
          </g>
        </g>
      </g>
    </g>
    <g class="st2">
      <g class="st2">
        <g class="st2">
          <g class="st2">
            <g class="st2">
              <path d="M99.21,183.27h-2.09v-.35h1.68v-.87h-1.48v-.34h1.48v-1.3h.41v2.87h0Z"/>
            </g>
          </g>
        </g>
      </g>
    </g>
    <g class="st2">
      <g class="st2">
        <g class="st2">
          <g class="st2">
            <g class="st2">
              <path d="M97.42,183.27h-.41v-2.87h.41v2.87Z"/>
            </g>
          </g>
        </g>
      </g>
    </g>
    <g class="st2">
      <g class="st2">
        <g class="st2">
          <g class="st2">
            <g class="st2">
              <path d="M96.59,183.27h-2.19v-.35h1.79v-.87h-1.65v-.33h1.65v-.97h-1.82v-.34h2.22v2.87h0Z"/>
            </g>
          </g>
        </g>
      </g>
    </g>
    <g class="st2">
      <g class="st2">
        <g class="st2">
          <g class="st2">
            <g class="st2">
              <path d="M92.96,183.27h-.46l-1.09-2.87h.45l.31.86h1.19l.33-.86h.42l-1.13,2.87h-.02ZM92.29,181.58l.46,1.27.49-1.27h-.95Z"/>
            </g>
          </g>
        </g>
      </g>
    </g>
    <g class="st2">
      <g class="st2">
        <g class="st2">
          <g class="st2">
            <g class="st2">
              <path d="M91.75,183.27h-.58l-.87-2.43-.86,2.43h-.58v-2.87h.39v2.42l.86-2.42h.4l.87,2.42v-2.42h.39v2.87h-.02Z"/>
            </g>
          </g>
        </g>
      </g>
    </g>
    <g class="st2">
      <g class="st2">
        <g class="st2">
          <g class="st2">
            <g class="st2">
              <path d="M88.25,183.27h-.46l-1.09-2.87h.45l.31.86h1.19l.33-.86h.42l-1.13,2.87h-.02ZM87.57,181.58l.46,1.27.49-1.27h-.95Z"/>
            </g>
          </g>
        </g>
      </g>
    </g>
    <g class="st2">
      <g class="st2">
        <g class="st2">
          <g class="st2">
            <g class="st2">
              <path d="M87.03,183.27h-.41v-2.53h-1.51v-.34h1.92s0,2.87,0,2.87Z"/>
            </g>
          </g>
        </g>
      </g>
    </g>
    <g class="st2">
      <g class="st2">
        <g class="st2">
          <g class="st2">
            <g class="st2">
              <path d="M85.19,183.27h-.41v-2.87h.41v2.87Z"/>
            </g>
          </g>
        </g>
      </g>
    </g>
    <g class="st2">
      <g class="st2">
        <g class="st2">
          <g class="st2">
            <g class="st2">
              <path d="M84.36,183.27h-2.19v-.35h1.79v-.87h-1.65v-.33h1.65v-.97h-1.82v-.34h2.22v2.87h0Z"/>
            </g>
          </g>
        </g>
      </g>
    </g>
    <g class="st2">
      <g class="st2">
        <g class="st2">
          <g class="st2">
            <g class="st2">
              <path d="M80.74,183.27h-1.3c-.35,0-.61-.1-.76-.3-.09-.12-.13-.26-.13-.41,0-.18.05-.33.16-.45.06-.06.14-.12.24-.17-.15-.06-.27-.12-.35-.19-.14-.12-.2-.3-.2-.52,0-.19.06-.35.18-.5.18-.22.47-.34.87-.34h1.28v2.87h0ZM79.45,180.73c-.25,0-.43.07-.54.21-.07.09-.1.19-.1.32,0,.21.1.35.3.43.1.04.24.06.42.06h.82v-1.01h-.9ZM79.59,182.06c-.17,0-.31.02-.41.07-.15.07-.23.2-.23.39s.08.31.24.38c.09.04.23.05.41.05h.74v-.89h-.75,0Z"/>
            </g>
          </g>
        </g>
      </g>
    </g>
    <g class="st2">
      <g class="st2">
        <g class="st2">
          <g class="st2">
            <g class="st2">
              <path d="M78.87,183.27h-.48l-.87-1.38-.87,1.38h-.48l1.14-1.71v-1.16h.41v1.16l1.14,1.71h.01Z"/>
            </g>
          </g>
        </g>
      </g>
    </g>
    <g class="st2">
      <g class="st2">
        <g class="st2">
          <g class="st2">
            <g class="st2">
              <path d="M75.57,181.33c0-.16-.05-.29-.12-.4-.13-.19-.36-.29-.69-.29-.15,0-.28.02-.4.06-.23.08-.35.22-.35.43,0,.16.05.27.15.33s.26.12.47.17l.4.09c.26.06.44.12.55.19.19.12.28.3.28.54,0,.26-.09.47-.27.63-.18.17-.44.25-.77.25-.31,0-.57-.07-.78-.22s-.32-.38-.32-.7h.38c.02.15.06.27.13.35.12.15.32.22.61.22.23,0,.4-.05.5-.14.1-.1.15-.21.15-.34,0-.14-.06-.24-.18-.31-.08-.04-.25-.09-.53-.16l-.41-.09c-.2-.04-.35-.11-.46-.18-.19-.13-.28-.33-.28-.58,0-.32.12-.54.35-.68s.51-.21.82-.21c.37,0,.65.09.86.27.21.18.31.43.3.74h-.38v.03h-.01Z"/>
            </g>
          </g>
        </g>
      </g>
    </g>
    <g class="st2">
      <g class="st2">
        <g class="st2">
          <g class="st2">
            <g class="st2">
              <path d="M71.44,182.86c-.2-.25-.3-.58-.3-.97,0-.43.11-.79.34-1.07.27-.33.65-.5,1.15-.5.46,0,.83.15,1.09.44.24.28.35.64.35,1.07,0,.39-.1.72-.3,1-.26.35-.64.53-1.15.53s-.93-.16-1.18-.49h0ZM71.8,181.03c-.16.25-.24.53-.24.85,0,.34.09.61.28.82s.44.31.76.31.57-.1.76-.31c.2-.2.3-.5.3-.9,0-.32-.08-.59-.25-.8-.17-.22-.44-.33-.82-.33-.36,0-.62.12-.78.37h-.01Z"/>
            </g>
          </g>
        </g>
      </g>
    </g>
    <g class="st2">
      <g class="st2">
        <g class="st2">
          <g class="st2">
            <g class="st2">
              <path d="M71.44,183.27h-2.09v-.35h1.68v-.87h-1.48v-.34h1.48v-1.3h.41v2.87h0Z"/>
            </g>
          </g>
        </g>
      </g>
    </g>
    <g class="st2">
      <g class="st2">
        <g class="st2">
          <g class="st2">
            <g class="st2">
              <path d="M69.64,183.27h-.41v-2.87h.41v2.87Z"/>
            </g>
          </g>
        </g>
      </g>
    </g>
    <g class="st2">
      <g class="st2">
        <g class="st2">
          <g class="st2">
            <g class="st2">
              <path d="M68.82,183.27h-2.19v-.35h1.79v-.87h-1.65v-.33h1.65v-.97h-1.82v-.34h2.22v2.87h0Z"/>
            </g>
          </g>
        </g>
      </g>
    </g>
    <g class="st2">
      <g class="st2">
        <g class="st2">
          <g class="st2">
            <g class="st2">
              <path d="M65.18,183.27h-.46l-1.09-2.87h.45l.31.86h1.19l.33-.86h.42l-1.13,2.87h-.02ZM64.51,181.58l.46,1.27.49-1.27h-.95Z"/>
            </g>
          </g>
        </g>
      </g>
    </g>
    <g class="st2">
      <g class="st2">
        <g class="st2">
          <g class="st2">
            <g class="st2">
              <path d="M63.97,183.27h-.58l-.87-2.43-.86,2.43h-.58v-2.87h.39v2.42l.86-2.42h.4l.87,2.42v-2.42h.39v2.87h-.02Z"/>
            </g>
          </g>
        </g>
      </g>
    </g>
    <g class="st2">
      <g class="st2">
        <g class="st2">
          <g class="st2">
            <g class="st2">
              <path d="M60.47,183.27h-.46l-1.09-2.87h.45l.31.86h1.19l.33-.86h.42l-1.13,2.87h-.02ZM59.8,181.58l.46,1.27.49-1.27h-.95Z"/>
            </g>
          </g>
        </g>
      </g>
    </g>
    <g class="st2">
      <g class="st2">
        <g class="st2">
          <g class="st2">
            <g class="st2">
              <path d="M59.25,183.27h-.41v-2.53h-1.51v-.34h1.92v2.87Z"/>
            </g>
          </g>
        </g>
      </g>
    </g>
    <g class="st2">
      <g class="st2">
        <g class="st2">
          <g class="st2">
            <g class="st2">
              <path d="M57.41,183.27h-.41v-2.87h.41v2.87Z"/>
            </g>
          </g>
        </g>
      </g>
    </g>
    <g class="st2">
      <g class="st2">
        <g class="st2">
          <g class="st2">
            <g class="st2">
              <path d="M56.59,183.27h-2.19v-.35h1.79v-.87h-1.65v-.33h1.65v-.97h-1.82v-.34h2.22v2.87h0Z"/>
            </g>
          </g>
        </g>
      </g>
    </g>
    <g class="st2">
      <g class="st2">
        <g class="st2">
          <g class="st2">
            <g class="st2">
              <path d="M52.97,183.27h-1.3c-.35,0-.61-.1-.76-.3-.09-.12-.13-.26-.13-.41,0-.18.05-.33.16-.45.06-.06.14-.12.24-.17-.15-.06-.27-.12-.35-.19-.14-.12-.2-.3-.2-.52,0-.19.06-.35.18-.5.18-.22.47-.34.87-.34h1.28v2.87h0ZM51.68,180.73c-.25,0-.43.07-.54.21-.07.09-.1.19-.1.32,0,.21.1.35.3.43.1.04.24.06.42.06h.82v-1.01h-.9,0ZM51.82,182.06c-.17,0-.31.02-.41.07-.15.07-.23.2-.23.39s.08.31.24.38c.09.04.23.05.41.05h.74v-.89h-.75Z"/>
            </g>
          </g>
        </g>
      </g>
    </g>
    <g class="st2">
      <g class="st2">
        <g class="st2">
          <g class="st2">
            <g class="st2">
              <path d="M51.09,183.27h-.48l-.87-1.38-.87,1.38h-.48l1.14-1.71v-1.16h.41v1.16l1.14,1.71h0Z"/>
            </g>
          </g>
        </g>
      </g>
    </g>
    <g class="st2">
      <g class="st2">
        <g class="st2">
          <g class="st2">
            <g class="st2">
              <path d="M47.8,181.33c0-.16-.05-.29-.12-.4-.13-.19-.36-.29-.69-.29-.15,0-.28.02-.4.06-.23.08-.35.22-.35.43,0,.16.05.27.15.33.1.06.26.12.47.17l.4.09c.26.06.44.12.55.19.19.12.28.3.28.54,0,.26-.09.47-.27.63-.18.17-.44.25-.77.25-.31,0-.57-.07-.78-.22s-.32-.38-.32-.7h.38c.02.15.06.27.13.35.12.15.32.22.61.22.23,0,.4-.05.5-.14.1-.1.15-.21.15-.34,0-.14-.06-.24-.18-.31-.08-.04-.25-.09-.53-.16l-.41-.09c-.2-.04-.35-.11-.46-.18-.19-.13-.28-.33-.28-.58,0-.32.12-.54.35-.68s.51-.21.82-.21c.37,0,.65.09.86.27.21.18.31.43.3.74h-.38v.03h-.01Z"/>
            </g>
          </g>
        </g>
      </g>
    </g>
    <g class="st2">
      <g class="st2">
        <g class="st2">
          <g class="st2">
            <g class="st2">
              <path d="M43.67,182.86c-.2-.25-.3-.58-.3-.97,0-.43.11-.79.34-1.07.27-.33.65-.5,1.15-.5.46,0,.83.15,1.09.44.24.28.35.64.35,1.07,0,.39-.1.72-.3,1-.26.35-.64.53-1.15.53s-.93-.16-1.18-.49h0ZM44.03,181.03c-.16.25-.24.53-.24.85,0,.34.09.61.28.82s.44.31.76.31.57-.1.76-.31c.2-.2.3-.5.3-.9,0-.32-.08-.59-.25-.8-.17-.22-.44-.33-.82-.33-.36,0-.62.12-.78.37h0Z"/>
            </g>
          </g>
        </g>
      </g>
    </g>
    <g class="st2">
      <g class="st2">
        <g class="st2">
          <g class="st2">
            <g class="st2">
              <path d="M43.66,183.27h-2.09v-.35h1.68v-.87h-1.48v-.34h1.48v-1.3h.41v2.87h0Z"/>
            </g>
          </g>
        </g>
      </g>
    </g>
    <g class="st2">
      <g class="st2">
        <g class="st2">
          <g class="st2">
            <g class="st2">
              <path d="M41.86,183.27h-.41v-2.87h.41v2.87Z"/>
            </g>
          </g>
        </g>
      </g>
    </g>
    <g class="st2">
      <g class="st2">
        <g class="st2">
          <g class="st2">
            <g class="st2">
              <path d="M41.04,183.27h-2.19v-.35h1.79v-.87h-1.65v-.33h1.65v-.97h-1.82v-.34h2.22v2.87h0Z"/>
            </g>
          </g>
        </g>
      </g>
    </g>
    <g class="st2">
      <g class="st2">
        <g class="st2">
          <g class="st2">
            <g class="st2">
              <path d="M37.4,183.27h-.46l-1.09-2.87h.45l.31.86h1.19l.33-.86h.42l-1.13,2.87h-.02ZM36.73,181.58l.46,1.27.49-1.27h-.95Z"/>
            </g>
          </g>
        </g>
      </g>
    </g>
    <g class="st2">
      <g class="st2">
        <g class="st2">
          <g class="st2">
            <g class="st2">
              <path d="M36.2,183.27h-.58l-.87-2.43-.86,2.43h-.58v-2.87h.39v2.42l.86-2.42h.4l.87,2.42v-2.42h.39v2.87s-.02,0-.02,0Z"/>
            </g>
          </g>
        </g>
      </g>
    </g>
    <g class="st2">
      <g class="st2">
        <g class="st2">
          <g class="st2">
            <g class="st2">
              <path d="M32.69,183.27h-.46l-1.09-2.87h.45l.31.86h1.19l.33-.86h.42l-1.13,2.87h-.02ZM32.02,181.58l.46,1.27.49-1.27h-.95Z"/>
            </g>
          </g>
        </g>
      </g>
    </g>
    <g class="st2">
      <g class="st2">
        <g class="st2">
          <g class="st2">
            <g class="st2">
              <path d="M31.47,183.27h-.41v-2.53h-1.51v-.34h1.92v2.87Z"/>
            </g>
          </g>
        </g>
      </g>
    </g>
    <g class="st2">
      <g class="st2">
        <g class="st2">
          <g class="st2">
            <g class="st2">
              <path d="M29.63,183.27h-.41v-2.87h.41v2.87Z"/>
            </g>
          </g>
        </g>
      </g>
    </g>
    <g class="st2">
      <g class="st2">
        <g class="st2">
          <g class="st2">
            <g class="st2">
              <path d="M28.81,183.27h-2.19v-.35h1.79v-.87h-1.65v-.33h1.65v-.97h-1.82v-.34h2.22v2.87h0Z"/>
            </g>
          </g>
        </g>
      </g>
    </g>
    <g class="st2">
      <g class="st2">
        <g class="st2">
          <g class="st2">
            <g class="st2">
              <path d="M25.19,183.27h-1.3c-.35,0-.61-.1-.76-.3-.09-.12-.13-.26-.13-.41,0-.18.05-.33.16-.45.06-.06.14-.12.24-.17-.15-.06-.27-.12-.35-.19-.14-.12-.2-.3-.2-.52,0-.19.06-.35.18-.5.18-.22.47-.34.87-.34h1.28v2.87h0ZM23.9,180.73c-.25,0-.43.07-.54.21-.07.09-.1.19-.1.32,0,.21.1.35.3.43.1.04.24.06.42.06h.82v-1.01h-.9,0ZM24.04,182.06c-.17,0-.31.02-.41.07-.15.07-.23.2-.23.39s.08.31.24.38c.09.04.23.05.41.05h.74v-.89h-.75Z"/>
            </g>
          </g>
        </g>
      </g>
    </g>
    <g class="st2">
      <g class="st2">
        <g class="st2">
          <g class="st2">
            <g class="st2">
              <path d="M23.32,183.27h-.48l-.87-1.38-.87,1.38h-.48l1.14-1.71v-1.16h.41v1.16l1.14,1.71h.01Z"/>
            </g>
          </g>
        </g>
      </g>
    </g>
    <g class="st2">
      <g class="st2">
        <g class="st2">
          <g class="st2">
            <g class="st2">
              <path d="M20.02,181.33c0-.16-.05-.29-.12-.4-.13-.19-.36-.29-.69-.29-.15,0-.28.02-.4.06-.23.08-.35.22-.35.43,0,.16.05.27.15.33s.26.12.47.17l.4.09c.26.06.44.12.55.19.19.12.28.3.28.54,0,.26-.09.47-.27.63-.18.17-.44.25-.77.25-.31,0-.57-.07-.78-.22-.21-.15-.32-.38-.32-.7h.38c.02.15.06.27.13.35.12.15.32.22.61.22.23,0,.4-.05.5-.14.1-.1.15-.21.15-.34,0-.14-.06-.24-.18-.31-.08-.04-.25-.09-.53-.16l-.41-.09c-.2-.04-.35-.11-.46-.18-.19-.13-.28-.33-.28-.58,0-.32.12-.54.35-.68s.51-.21.82-.21c.37,0,.65.09.86.27.21.18.31.43.3.74h-.38v.03h0Z"/>
            </g>
          </g>
        </g>
      </g>
    </g>
    <g class="st2">
      <g class="st2">
        <g class="st2">
          <g class="st2">
            <g class="st2">
              <path d="M15.89,182.86c-.2-.25-.3-.58-.3-.97,0-.43.11-.79.34-1.07.27-.33.65-.5,1.15-.5.46,0,.83.15,1.09.44.24.28.35.64.35,1.07,0,.39-.1.72-.3,1-.26.35-.64.53-1.15.53s-.93-.16-1.18-.49h0ZM16.25,181.03c-.16.25-.24.53-.24.85,0,.34.09.61.28.82s.44.31.76.31.57-.1.76-.31c.2-.2.3-.5.3-.9,0-.32-.08-.59-.25-.8-.17-.22-.44-.33-.82-.33-.36,0-.62.12-.78.37h-.01Z"/>
            </g>
          </g>
        </g>
      </g>
    </g>
    <g class="st2">
      <g class="st2">
        <g class="st2">
          <g class="st2">
            <g class="st2">
              <path d="M15.88,183.27h-2.09v-.35h1.68v-.87h-1.48v-.34h1.48v-1.3h.41v2.87h0Z"/>
            </g>
          </g>
        </g>
      </g>
    </g>
    <g class="st2">
      <g class="st2">
        <g class="st2">
          <g class="st2">
            <g class="st2">
              <path d="M14.09,183.27h-.41v-2.87h.41v2.87Z"/>
            </g>
          </g>
        </g>
      </g>
    </g>
    <g class="st2">
      <g class="st2">
        <g class="st2">
          <g class="st2">
            <g class="st2">
              <path d="M13.26,183.27h-2.19v-.35h1.79v-.87h-1.65v-.33h1.65v-.97h-1.82v-.34h2.22v2.87h0Z"/>
            </g>
          </g>
        </g>
      </g>
    </g>
  </g>
  <path class="st1" d="M288.64,118.62c-14.78-.05-29.55-.1-44.33-.15-9.15-.03-18.3-.06-27.46-.09-36.32-.12-72.67-.24-108.94,1.66-6.91.36-14.15.91-19.98,4.62s-9.56,11.7-6.26,17.78c3.57,6.57,12.53,7.35,20.01,7.31,8.96-.05,17.92-.1,26.88-.15,6.77-.04,13.78-.03,19.97,2.72s11.35,9.03,10.57,15.75c-.66,5.66-5.35,10.19-10.63,12.33s-11.12,2.33-16.81,2.48c-40.02,1.05-80.05,1.53-120.09,1.43"/>
</svg>